<svg width="50" height="50" viewBox="0 0 50 50" fill="none" xmlns="http://www.w3.org/2000/svg">
<path d="M44.951 41.1661H40.7281V19.3301H46.0127V40.0647C46.0127 40.6727 45.5378 41.1661 44.951 41.1661ZM3.98725 40.0647V19.3301H9.26261V41.1661H5.0499C4.46313 41.1661 3.98725 40.6727 3.98725 40.0647ZM5.0499 8.85049H9.26261V16.1929H3.98725V9.95103C3.98725 9.34301 4.46313 8.85049 5.0499 8.85049ZM33.2194 8.85049H39.2986V16.1929H33.2194V8.85049ZM33.2194 19.3301H39.2986V41.1661H33.2194V19.3301ZM25.7106 19.3301H31.7899V41.1661H25.7106V19.3301ZM18.2009 19.3301H24.2802V41.1661H18.2009V19.3301ZM16.7714 41.1661H10.6921V19.3301H16.7714V41.1661ZM16.7714 16.1929H10.6921V8.85049H16.7714V16.1929ZM25.7106 8.85049H31.7899V16.1929H25.7106V8.85049ZM24.2802 16.1929H18.2009V8.85049H24.2802V16.1929ZM46.0127 9.95103V16.1929H40.7281V8.85049H44.951C45.5378 8.85049 46.0127 9.34301 46.0127 9.95103ZM46.691 5H3.30807C1.48401 5 0 6.54038 0 8.4319V41.5829C0 43.4763 1.48401 45.0148 3.30807 45.0148H46.691C48.516 45.0148 49.9991 43.4763 49.9991 41.5829V8.4319C49.9991 6.54038 48.516 5 46.691 5Z" fill="#735300"/>
<path d="M49.9991 8.5166V24.5441H50V8.56188C49.9991 8.54617 49.9991 8.53231 49.9991 8.5166ZM44.9511 8.85018H40.7273V9.0239H44.9511C45.5378 9.0239 46.0128 9.51734 46.0128 10.1263V16.1945V9.95072C46.0128 9.34362 45.5378 8.85018 44.9511 8.85018ZM39.2978 8.85018H33.2185V9.0239H39.2978V16.1945V8.85018ZM31.789 8.85018H25.7097V9.0239H31.789V16.1945V8.85018ZM24.2802 8.85018H18.2009V9.0239H24.2802V16.1945V8.85018ZM16.7714 8.85018H10.6922V16.1945V9.0239H16.7714V16.1945V8.85018ZM9.26267 8.85018H5.04903C4.46226 8.85018 3.9873 9.34362 3.9873 9.95072V10.0995C4.00024 9.50348 4.47243 9.0239 5.04903 9.0239H9.26267V8.85018ZM46.0128 19.3298H40.7273V19.5044H46.0128V24.5441V19.3298ZM39.2978 19.3298H33.2185V19.5044H39.2978V24.5441V19.3298ZM31.789 19.3298H25.7097V19.5044H31.789V24.5441V19.3298ZM24.2802 19.3298H18.2009V24.5441H18.2019V19.5044H24.2802V24.5441V19.3298ZM16.7714 19.3298H10.6922V24.5441H10.6931V19.5044H16.7714V24.5441V19.3298ZM9.26267 19.3298H3.9873V19.5035H9.26267V19.3298Z" fill="#9EBFD5"/>
<path d="M46.753 5.1748H3.24807C1.45172 5.20899 0.000976562 6.73459 0.000976562 8.60763V24.5446H3.9873V19.3302H9.26267V19.5049H9.26359V24.5446H10.6922V19.3302H16.7714V24.5446H18.2009V19.3302H24.2811V24.5446H25.7097V19.3302H31.789V24.5446H33.2185V19.3302H39.2978V24.5446H40.7273V19.3302H46.0128V24.5446H49.9991V8.51615C49.9529 6.68654 48.5197 5.20715 46.753 5.1748ZM40.7273 9.02529V8.85065H44.9501C45.5378 8.85065 46.0128 9.34224 46.0128 9.95119V16.3677H40.7273V9.02529ZM33.2185 9.02529V8.85065H39.2978V16.3677H33.2185V9.02529ZM25.7097 9.02529V8.85065H31.789V16.3677H25.7097V9.02529ZM18.2009 9.02529V8.85065H24.2811V16.1931H24.2802V16.3677H18.2009V9.02529ZM10.6922 16.1931V8.85065H16.7714V16.3677H10.6922V16.1931ZM3.9873 10.1V9.95119C3.9873 9.34224 4.46134 8.85065 5.04903 8.85065H9.26267V9.02529H9.26359V16.3677H3.9873V10.1Z" fill="#735300"/>
<path d="M6.81006 38.2051L6.8655 38.3834L8.3375 40.3027L8.46872 40.3738H11.6373L11.7694 40.3027L13.2405 38.3834L13.2968 38.2051H6.81006Z" fill="#D8E2AB"/>
<path d="M13.2959 38.2043L13.2404 38.0324L11.7684 36.1141L11.6372 36.043H8.46866L8.33653 36.1141L6.86545 38.0324L6.80908 38.2043H13.2959Z" fill="white"/>
<path d="M6.81006 33.3467L6.8655 33.525L8.3375 35.4443L8.46872 35.5154H11.6373L11.7694 35.4443L13.2405 33.525L13.2968 33.3467H6.81006Z" fill="#D8E2AB"/>
<path d="M13.2959 33.3469L13.2404 33.175L11.7684 31.2567L11.6372 31.1855H8.46866L8.33653 31.2567L6.86545 33.175L6.80908 33.3469H13.2959Z" fill="white"/>
<path d="M6.81006 27.9844L6.8655 28.1627L8.3375 30.082L8.46872 30.1531H11.6373L11.7694 30.082L13.2405 28.1627L13.2968 27.9844H6.81006Z" fill="#D8E2AB"/>
<path d="M13.2959 27.9846L13.2404 27.8127L11.7684 25.8944L11.6372 25.8232H8.46866L8.33653 25.8944L6.86545 27.8127L6.80908 27.9846H13.2959Z" fill="white"/>
<path d="M6.81006 11.5049L6.8655 11.6832L8.3375 13.6025L8.46872 13.6736H11.6373L11.7694 13.6025L13.2405 11.6832L13.2968 11.5049H6.81006Z" fill="#D8E2AB"/>
<path d="M13.2959 11.5051L13.2404 11.3332L11.7684 9.4149L11.6372 9.34375H8.46866L8.33653 9.4149L6.86545 11.3332L6.80908 11.5051H13.2959Z" fill="white"/>
<path d="M14.1812 35.501L14.2366 35.6802L15.7086 37.5986L15.8398 37.6697H19.0084L19.1405 37.5986L20.6125 35.6802L20.6679 35.501H14.1812Z" fill="#D8E2AB"/>
<path d="M20.6679 35.5012L20.6125 35.3294L19.1405 33.411L19.0084 33.3408H15.8407L15.7086 33.411L14.2366 35.3294L14.1812 35.5012H20.6679Z" fill="white"/>
<path d="M14.1812 26.7793L14.2366 26.9576L15.7086 28.8769L15.8398 28.948H19.0084L19.1405 28.8769L20.6125 26.9576L20.6679 26.7793H14.1812Z" fill="#D8E2AB"/>
<path d="M20.6679 26.7785L20.6125 26.6067L19.1405 24.6883L19.0084 24.6172H15.8407L15.7086 24.6883L14.2366 26.6067L14.1812 26.7785H20.6679Z" fill="white"/>
<path d="M14.1812 21.8232L14.2366 22.0025L15.7086 23.9208L15.8398 23.992H19.0084L19.1405 23.9208L20.6125 22.0025L20.6679 21.8232H14.1812Z" fill="#D8E2AB"/>
<path d="M20.6679 21.8234L20.6125 21.6516L19.1405 19.7333L19.0084 19.6621H15.8407L15.7086 19.7333L14.2366 21.6516L14.1812 21.8234H20.6679Z" fill="white"/>
<path d="M14.1812 13.5977L14.2366 13.776L15.7086 15.6952L15.8398 15.7664H19.0084L19.1405 15.6952L20.6125 13.776L20.6679 13.5977H14.1812Z" fill="#D8E2AB"/>
<path d="M20.6679 13.5969L20.6125 13.425L19.1405 11.5067L19.0084 11.4355H15.8407L15.7086 11.5067L14.2366 13.425L14.1812 13.5969H20.6679Z" fill="white"/>
<path d="M21.8057 38.3242L21.8593 38.5035L23.3266 40.4264L23.4579 40.4976L26.6273 40.5068L26.7585 40.4357L28.2361 38.5229L28.2925 38.3445L21.8057 38.3242Z" fill="#D8E2AB"/>
<path d="M28.2885 38.3352L28.2331 38.1633L26.7611 36.245L26.6299 36.1738H23.4613L23.3292 36.245L21.8581 38.1633L21.8018 38.3352H28.2885Z" fill="white"/>
<path d="M21.8018 33.3613L21.8572 33.5397L23.3292 35.4589L23.4604 35.5291H26.629L26.7611 35.4589L28.2322 33.5397L28.2885 33.3613H21.8018Z" fill="#D8E2AB"/>
<path d="M28.2885 33.3615L28.2331 33.1897L26.7611 31.2713L26.6299 31.2002H23.4613L23.3292 31.2713L21.8581 33.1897L21.8018 33.3615H28.2885Z" fill="white"/>
<path d="M21.8018 21.8232L21.8572 22.0025L23.3292 23.9208L23.4604 23.992H26.629L26.7611 23.9208L28.2322 22.0025L28.2885 21.8232H21.8018Z" fill="#D8E2AB"/>
<path d="M28.2885 21.8234L28.2331 21.6516L26.7611 19.7333L26.6299 19.6621H23.4613L23.3292 19.7333L21.8581 21.6516L21.8018 21.8234H28.2885Z" fill="white"/>
<path d="M21.8018 12.6094L21.8572 12.7877L23.3292 14.707L23.4604 14.7772H26.629L26.7611 14.707L28.2322 12.7877L28.2885 12.6094H21.8018Z" fill="#D8E2AB"/>
<path d="M28.2885 12.6096L28.2331 12.4377L26.7611 10.5194L26.6299 10.4482H23.4613L23.3292 10.5194L21.8581 12.4377L21.8018 12.6096H28.2885Z" fill="white"/>
<path d="M29.2544 35.501L29.3098 35.6802L30.7818 37.5986L30.914 37.6697H34.0816L34.2137 37.5986L35.6857 35.6802L35.7412 35.501H29.2544Z" fill="#D8E2AB"/>
<path d="M35.7412 35.5012L35.6857 35.3294L34.2137 33.411L34.0825 33.3408H30.914L30.7818 33.411L29.3108 35.3294L29.2544 35.5012H35.7412Z" fill="white"/>
<path d="M29.2544 28.5654L29.3098 28.7438L30.7818 30.663L30.914 30.7342H34.0816L34.2137 30.663L35.6857 28.7438L35.7412 28.5654H29.2544Z" fill="#D8E2AB"/>
<path d="M35.7412 28.5656L35.6857 28.3938L34.2137 26.4754L34.0825 26.4043H30.914L30.7818 26.4754L29.3108 28.3938L29.2544 28.5656H35.7412Z" fill="white"/>
<path d="M29.2544 21.8232L29.3098 22.0025L30.7818 23.9208L30.914 23.992H34.0816L34.2137 23.9208L35.6857 22.0025L35.7412 21.8232H29.2544Z" fill="#D8E2AB"/>
<path d="M35.7412 21.8234L35.6857 21.6516L34.2137 19.7333L34.0825 19.6621H30.914L30.7818 19.7333L29.3108 21.6516L29.2544 21.8234H35.7412Z" fill="white"/>
<path d="M29.2544 11.5049L29.3098 11.6832L30.7818 13.6025L30.914 13.6736H34.0816L34.2137 13.6025L35.6857 11.6832L35.7412 11.5049H29.2544Z" fill="#D8E2AB"/>
<path d="M35.7412 11.5051L35.6857 11.3332L34.2137 9.4149L34.0825 9.34375H30.914L30.7818 9.4149L29.3108 11.3332L29.2544 11.5051H35.7412Z" fill="white"/>
<path d="M36.7363 31.6611L36.7918 31.8395L38.2638 33.7587L38.395 33.8299H41.5635L41.6957 33.7587L43.1667 31.8395L43.2231 31.6611H36.7363Z" fill="#D8E2AB"/>
<path d="M43.2221 31.6613L43.1667 31.4895L41.6947 29.5712L41.5635 29.5H38.3949L38.2628 29.5712L36.7917 31.4895L36.7354 31.6613H43.2221Z" fill="white"/>
<path d="M36.7363 26.749L36.7918 26.9274L38.2638 28.8466L38.395 28.9178H41.5635L41.6957 28.8466L43.1667 26.9274L43.2231 26.749H36.7363Z" fill="#D8E2AB"/>
<path d="M43.2221 26.7492L43.1667 26.5774L41.6947 24.659L41.5635 24.5879H38.3949L38.2628 24.659L36.7917 26.5774L36.7354 26.7492H43.2221Z" fill="white"/>
<path d="M36.7363 21.8232L36.7918 22.0025L38.2638 23.9208L38.395 23.992H41.5635L41.6957 23.9208L43.1667 22.0025L43.2231 21.8232H36.7363Z" fill="#D8E2AB"/>
<path d="M43.2221 21.8234L43.1667 21.6516L41.6947 19.7333L41.5635 19.6621H38.3949L38.2628 19.7333L36.7917 21.6516L36.7354 21.8234H43.2221Z" fill="white"/>
<path d="M36.7363 13.5107L36.7918 13.6891L38.2638 15.6083L38.395 15.6795H41.5635L41.6957 15.6083L43.1667 13.6891L43.2231 13.5107H36.7363Z" fill="#D8E2AB"/>
<path d="M43.2221 13.5109L43.1667 13.3391L41.6947 11.4208L41.5635 11.3496H38.3949L38.2628 11.4208L36.7917 13.3391L36.7354 13.5109H43.2221Z" fill="white"/>
</svg>
