<svg width="169" height="58" viewBox="0 0 169 58" fill="none" xmlns="http://www.w3.org/2000/svg">
<rect y="8" width="151" height="42" rx="8" fill="#009BDB"/>
<path d="M20.7109 23.5781C21.6953 23.5781 22.5078 23.6979 23.1484 23.9375C23.7943 24.1771 24.2734 24.5417 24.5859 25.0312C24.9036 25.5208 25.0625 26.1432 25.0625 26.8984C25.0625 27.4609 24.9583 27.9401 24.75 28.3359C24.5417 28.7318 24.2682 29.0599 23.9297 29.3203C23.5911 29.5807 23.2292 29.7891 22.8438 29.9453L26.0859 35H23.9688L21.2109 30.4219H19.375V35H17.5V23.5781H20.7109ZM20.5859 25.1406H19.375V28.875H20.6719C21.5417 28.875 22.1719 28.7135 22.5625 28.3906C22.9583 28.0677 23.1562 27.5911 23.1562 26.9609C23.1562 26.2995 22.9453 25.8307 22.5234 25.5547C22.1068 25.2786 21.4609 25.1406 20.5859 25.1406ZM34.1875 35H27.7188V23.5781H34.1875V25.1562H29.5938V28.2578H33.8984V29.8281H29.5938V33.4141H34.1875V35ZM41.2656 28.7969H45.5312V34.5312C44.9323 34.7292 44.3125 34.8828 43.6719 34.9922C43.0312 35.1016 42.3125 35.1562 41.5156 35.1562C40.3542 35.1562 39.3698 34.9271 38.5625 34.4688C37.7604 34.0052 37.151 33.3359 36.7344 32.4609C36.3177 31.5807 36.1094 30.5208 36.1094 29.2812C36.1094 28.0885 36.3411 27.0547 36.8047 26.1797C37.2682 25.2995 37.9427 24.6198 38.8281 24.1406C39.7135 23.6562 40.7865 23.4141 42.0469 23.4141C42.6667 23.4141 43.2656 23.4766 43.8438 23.6016C44.4271 23.7214 44.9609 23.888 45.4453 24.1016L44.7891 25.6484C44.4036 25.4661 43.9714 25.3125 43.4922 25.1875C43.013 25.0625 42.5156 25 42 25C41.1823 25 40.4766 25.1771 39.8828 25.5312C39.2943 25.8854 38.8411 26.3854 38.5234 27.0312C38.2057 27.6719 38.0469 28.4297 38.0469 29.3047C38.0469 30.1536 38.1745 30.8984 38.4297 31.5391C38.6849 32.1797 39.0833 32.6797 39.625 33.0391C40.1719 33.3932 40.8776 33.5703 41.7422 33.5703C42.1745 33.5703 42.5417 33.5469 42.8438 33.5C43.1458 33.4531 43.4245 33.401 43.6797 33.3438V30.3984H41.2656V28.7969ZM51.4766 23.5781C52.4609 23.5781 53.2734 23.6979 53.9141 23.9375C54.5599 24.1771 55.0391 24.5417 55.3516 25.0312C55.6693 25.5208 55.8281 26.1432 55.8281 26.8984C55.8281 27.4609 55.724 27.9401 55.5156 28.3359C55.3073 28.7318 55.0339 29.0599 54.6953 29.3203C54.3568 29.5807 53.9948 29.7891 53.6094 29.9453L56.8516 35H54.7344L51.9766 30.4219H50.1406V35H48.2656V23.5781H51.4766ZM51.3516 25.1406H50.1406V28.875H51.4375C52.3073 28.875 52.9375 28.7135 53.3281 28.3906C53.724 28.0677 53.9219 27.5911 53.9219 26.9609C53.9219 26.2995 53.7109 25.8307 53.2891 25.5547C52.8724 25.2786 52.2266 25.1406 51.3516 25.1406ZM64.9531 35H58.4844V23.5781H64.9531V25.1562H60.3594V28.2578H64.6641V29.8281H60.3594V33.4141H64.9531V35ZM74.0156 31.8906C74.0156 32.5677 73.849 33.151 73.5156 33.6406C73.1875 34.1302 72.7135 34.5052 72.0938 34.7656C71.4792 35.026 70.7448 35.1562 69.8906 35.1562C69.474 35.1562 69.0755 35.1328 68.6953 35.0859C68.3151 35.0391 67.9557 34.9714 67.6172 34.8828C67.2839 34.7891 66.9792 34.6771 66.7031 34.5469V32.7812C67.1667 32.9844 67.6849 33.1693 68.2578 33.3359C68.8307 33.4974 69.4141 33.5781 70.0078 33.5781C70.4922 33.5781 70.8932 33.5156 71.2109 33.3906C71.5339 33.2604 71.7734 33.0781 71.9297 32.8438C72.0859 32.6042 72.1641 32.3255 72.1641 32.0078C72.1641 31.6693 72.0729 31.3828 71.8906 31.1484C71.7083 30.9141 71.4323 30.7005 71.0625 30.5078C70.6979 30.3099 70.2396 30.099 69.6875 29.875C69.3125 29.724 68.9531 29.5521 68.6094 29.3594C68.2708 29.1667 67.9688 28.9401 67.7031 28.6797C67.4375 28.4193 67.2266 28.112 67.0703 27.7578C66.9193 27.3984 66.8438 26.9766 66.8438 26.4922C66.8438 25.8464 66.9974 25.2943 67.3047 24.8359C67.6172 24.3776 68.0547 24.026 68.6172 23.7812C69.1849 23.5365 69.8464 23.4141 70.6016 23.4141C71.2005 23.4141 71.763 23.4766 72.2891 23.6016C72.8203 23.7266 73.3411 23.9036 73.8516 24.1328L73.2578 25.6406C72.7891 25.4479 72.3333 25.2943 71.8906 25.1797C71.4531 25.0651 71.0052 25.0078 70.5469 25.0078C70.151 25.0078 69.8151 25.0677 69.5391 25.1875C69.263 25.3073 69.0521 25.4766 68.9062 25.6953C68.7656 25.9089 68.6953 26.1641 68.6953 26.4609C68.6953 26.7943 68.776 27.0755 68.9375 27.3047C69.1042 27.5286 69.3594 27.7344 69.7031 27.9219C70.0521 28.1094 70.5 28.3177 71.0469 28.5469C71.6771 28.8073 72.2109 29.0807 72.6484 29.3672C73.0911 29.6536 73.4297 29.9974 73.6641 30.3984C73.8984 30.7943 74.0156 31.2917 74.0156 31.8906ZM83.2969 35L82.1797 31.8281H77.8125L76.6953 35H74.7188L78.9688 23.5312H81.0469L85.2891 35H83.2969ZM81.6953 30.2188L80.6094 27.0938C80.5677 26.9583 80.5078 26.7682 80.4297 26.5234C80.3516 26.2734 80.2734 26.0208 80.1953 25.7656C80.1172 25.5052 80.0521 25.2865 80 25.1094C79.9479 25.3229 79.8828 25.5625 79.8047 25.8281C79.7318 26.0885 79.6589 26.3333 79.5859 26.5625C79.5182 26.7917 79.4661 26.9688 79.4297 27.0938L78.3359 30.2188H81.6953ZM90.0078 23.5781C90.9922 23.5781 91.8047 23.6979 92.4453 23.9375C93.0911 24.1771 93.5703 24.5417 93.8828 25.0312C94.2005 25.5208 94.3594 26.1432 94.3594 26.8984C94.3594 27.4609 94.2552 27.9401 94.0469 28.3359C93.8385 28.7318 93.5651 29.0599 93.2266 29.3203C92.888 29.5807 92.526 29.7891 92.1406 29.9453L95.3828 35H93.2656L90.5078 30.4219H88.6719V35H86.7969V23.5781H90.0078ZM89.8828 25.1406H88.6719V28.875H89.9688C90.8385 28.875 91.4688 28.7135 91.8594 28.3906C92.2552 28.0677 92.4531 27.5911 92.4531 26.9609C92.4531 26.2995 92.2422 25.8307 91.8203 25.5547C91.4036 25.2786 90.7578 25.1406 89.8828 25.1406Z" fill="white"/>
<circle cx="140" cy="29" r="29" fill="#00598B"/>
<circle cx="140" cy="29" r="25" fill="white"/>
<path d="M146.663 19C149.463 21.8 149.167 24.6667 148.5 25.5L155.663 25L155 19.5C151.5 16 150 15.5 148.5 15.5C147 15.5 146.163 16 145.663 17C145.263 17.8 146.163 18.6667 146.663 19Z" fill="url(#paint0_linear_219_9659)"/>
<path d="M138.163 24V27C148.163 27 151.996 23.3333 152.663 21.5C153.463 19.9 154.329 19.5 154.663 19.5C156.663 19.5 157.163 22.8333 157.163 24.5C157.163 32.9 144.496 36.3333 138.163 37V39.5C138.163 41.9 136.496 41.5 135.663 41L123.663 33C122.463 32.2 123.163 31.3333 123.663 31C126.829 28.8333 133.663 24.2 135.663 23C137.663 21.8 138.163 23.1666 138.163 24Z" fill="url(#paint1_linear_219_9659)"/>
<defs>
<linearGradient id="paint0_linear_219_9659" x1="150.613" y1="16" x2="150.613" y2="25" gradientUnits="userSpaceOnUse">
<stop stop-color="#00ABE8"/>
<stop offset="1" stop-color="#003C55"/>
</linearGradient>
<linearGradient id="paint1_linear_219_9659" x1="154" y1="30" x2="123" y2="30" gradientUnits="userSpaceOnUse">
<stop stop-color="#009BDB"/>
<stop offset="1" stop-color="#00ABE8"/>
</linearGradient>
</defs>
</svg>
