<svg width="50" height="50" viewBox="0 0 50 50" fill="none" xmlns="http://www.w3.org/2000/svg">
<path d="M23.514 1.00004C23.0716 1.02782 22.6298 1.05282 22.1846 1.08059C21.3363 1.13336 20.4882 1.21415 19.6595 1.40301C19.5507 1.42826 19.4396 1.45604 19.3312 1.48381C18.9919 1.57547 18.672 1.7565 18.3551 1.91759C18.3132 1.93703 18.2716 1.9595 18.2329 1.9845C18.0241 2.09837 17.8264 2.23194 17.6181 2.3544C17.3235 2.52685 17.0172 2.64628 16.6695 2.69349C15.7714 2.82151 15.0791 3.29139 14.5812 4.04784C14.417 4.29528 14.2921 4.56797 14.136 4.824C14.0833 4.90732 14.0055 4.99089 13.9164 5.02952C13.0599 5.40498 12.2088 5.79154 11.419 6.30359C10.5678 6.85958 9.83107 7.52437 9.3165 8.40859C9.29983 8.43359 9.28621 8.45607 9.27207 8.48106C9.11073 8.76739 8.98272 9.06229 8.89384 9.36806C8.79082 9.70741 8.7383 10.0604 8.7383 10.4194C8.74082 11.5486 8.55197 12.6416 8.31261 13.7258C8.28206 13.854 8.25428 13.9821 8.22347 14.1098C8.13763 14.488 8.04294 14.8635 7.95382 15.2417C7.81192 15.8313 7.73971 16.4403 7.63669 17.0412C7.62558 17.0937 7.6117 17.144 7.60059 17.194V17.9532C7.66194 18.337 7.70637 18.7263 7.78692 19.1073C7.97603 19.9974 8.31538 20.8288 8.71861 21.6327C8.74941 21.6938 8.77971 21.755 8.81051 21.8135C8.90217 21.9915 8.99685 22.1693 9.09128 22.3473C9.7672 23.5959 10.4484 24.8449 11.1271 26.0907C11.5359 26.8388 12.1227 27.4309 12.7567 27.9846C13.352 28.5075 13.9666 29.008 14.5337 29.5556C15.6714 30.6572 16.2304 32.0088 16.0913 33.5965C15.958 35.0874 15.5073 36.4695 14.4643 37.5987C13.7495 38.3718 13.3632 39.3285 12.993 40.2907C12.6092 41.2946 12.409 42.346 12.1896 43.3918C12.1227 43.7142 12.056 44.0422 12.0113 44.3707C11.9141 45.0936 12.1338 45.5107 12.8206 45.7556C13.4828 45.9919 14.1668 46.1644 14.8453 46.348C15.549 46.5371 16.2276 46.7873 16.8228 47.2127C17.3093 47.5604 17.8264 47.8134 18.3662 48C19.2207 47.9179 20.1102 47.9452 21.0012 47.9727C22.0415 48.0045 23.084 48.0366 24.0755 47.894C26.306 47.6912 28.7368 46.882 30.9645 45.867C31.7012 45.6829 32.6024 44.9964 33.0667 44.1147C32.7304 43.542 32.391 42.9719 32.0378 42.4071C31.3871 41.3671 30.561 40.5021 29.6073 39.7456C29.5379 39.6928 29.4821 39.6234 29.4099 39.5787C28.8562 39.2394 28.7898 38.6998 28.8367 38.1297C28.8759 37.682 28.9648 37.2369 29.0286 36.7922C29.0705 36.5168 29.1122 36.2416 29.1564 35.9525C29.6154 36.0358 30.0772 36.1191 30.5388 36.1971C31.9042 36.4223 33.2753 36.5779 34.6632 36.539C35.3555 36.5168 36.0425 36.4473 36.7018 36.2163C36.9381 36.1332 37.1717 36.0274 37.386 35.8994C38.0253 35.5131 38.3175 34.94 38.2536 34.1891C38.2311 33.9388 38.2092 33.6856 38.1953 33.4354C38.1731 32.8905 38.3344 32.4093 38.7821 32.0866C39.2936 31.7167 39.4355 31.2327 39.3353 30.6431C39.2992 30.432 39.2797 30.2207 39.2411 30.0121C39.2214 29.9091 39.2353 29.8508 39.3436 29.82C39.4605 29.7867 39.5691 29.7367 39.6829 29.6975C40.0195 29.5836 40.1892 29.3418 40.192 28.9943C40.1947 28.4212 40.1947 27.8483 40.1725 27.2784C40.1614 27.0307 40.2419 26.8916 40.4674 26.7888C40.8179 26.6272 41.1545 26.4412 41.4908 26.2546C42.0079 25.9713 42.4558 25.6206 42.6224 25.0143V24.8141C42.2417 24.2384 41.8549 23.6683 41.4822 23.0901C41.1348 22.5475 40.7787 22.0107 40.4674 21.4489C39.9917 20.5953 39.9612 19.6941 40.3311 18.7958C40.5341 18.2953 40.8037 17.8169 41.0373 17.3275C41.2156 16.9549 41.4044 16.5877 41.5771 16.2123C41.6102 16.1429 41.6438 16.0732 41.6713 16.0037C41.7135 15.9174 41.7493 15.8313 41.7857 15.7449C41.9662 15.3056 41.994 14.8274 41.9551 14.3517C41.9051 13.7316 41.8468 13.1084 41.7907 12.4883C41.7354 11.8824 41.5322 11.3261 41.2458 10.7921C41.0903 10.5 40.9373 10.2053 40.8093 9.8993C40.7007 9.6405 40.7729 9.5294 41.0484 9.48218C41.2239 9.45441 41.3989 9.43497 41.6074 9.40997C41.5713 9.28473 41.5574 9.17894 41.5132 9.09006C41.4241 8.9065 41.3294 8.72294 41.2375 8.53938C41.1764 8.42248 41.1181 8.30584 41.0595 8.18616C41.054 8.17202 41.0456 8.15863 41.0401 8.14449C40.979 8.01648 40.9204 7.88039 40.8845 7.73823C40.8068 7.42691 40.9121 7.25724 41.2209 7.17392C41.2961 7.1517 41.3711 7.13782 41.4741 7.11535C41.4127 7.04313 41.3627 6.98203 41.3097 6.92648C40.1114 5.66656 38.7207 4.70685 37.0883 4.07562C36.8298 3.97564 36.571 3.87009 36.315 3.76152C35.5754 3.44439 34.8467 3.09394 34.1208 2.74626C34.0289 2.6993 33.9348 2.65486 33.8398 2.61017C32.3605 1.90092 30.7976 1.50603 29.1761 1.33081C28.1194 1.21416 27.0597 1.14725 25.9977 1.06645H25.9945C25.8445 1.05534 25.6942 1.04145 25.544 1.03034C25.4801 1.02504 25.416 1.01115 25.3496 1.00004H23.514Z" fill="url(#paint0_linear_219_1540)"/>
<path d="M14.0606 22.8921C14.894 24.6828 16.6275 25.711 18.5324 25.5389C18.6657 25.5272 18.7704 25.5462 18.8949 25.6209C19.264 25.8487 19.65 26.0398 20.0733 26.1526C21.423 26.5071 22.6593 26.2632 23.7842 25.4239L24.1372 25.3185C24.8798 25.3653 25.6026 25.2994 26.3042 25.0109C28.1264 24.2624 29.2498 22.9053 29.6526 20.9052C29.6768 20.7778 29.69 20.6474 29.8547 20.5969C30.3711 20.4336 30.8617 20.197 31.2521 19.8096C31.4974 19.5672 31.7413 19.5884 32.0196 19.6478C33.6594 20.0015 35.1109 19.5628 36.3435 18.424C38.2813 16.6333 38.5406 13.5867 37.007 11.4804C36.936 11.3845 36.8781 11.2798 36.884 11.1362C36.9081 10.3914 36.7954 9.67148 36.52 8.97574C36.0491 7.78125 35.253 6.89875 34.161 6.3048C33.417 5.90053 32.618 5.72989 31.7831 5.74527L31.5275 5.64347C30.7746 4.88035 29.8848 4.37428 28.8565 4.14139C27.9023 3.92461 26.9509 3.9561 26.0106 4.25491C25.194 4.5171 24.4726 4.95066 23.8501 5.56072L23.6494 5.60319C23.3909 5.46404 23.1126 5.36664 22.8299 5.28315C21.8573 4.9924 20.8774 4.96823 19.9048 5.2458C18.1464 5.74674 16.8985 6.87604 16.1712 8.62127L15.9339 8.89151C15.4594 9.08632 15.0134 9.3529 14.6069 9.67002C14.3967 9.8326 14.1755 10.0018 14.0005 10.2024C13.8094 10.4192 13.6475 10.6367 13.441 10.8367C13.2103 11.0615 13.0323 11.4028 12.8785 11.6855C12.5599 12.2743 12.3366 12.9151 12.1681 13.5662C12.0539 14.0056 12.0136 14.4802 12.0011 14.9408C11.9894 15.4586 12.0693 15.9749 12.1769 16.481C12.4208 17.6059 12.9085 18.6188 13.6731 19.472C13.7508 19.5569 13.8013 19.6478 13.7705 19.7854C13.679 20.1538 13.6336 20.5295 13.6365 20.9096C13.6365 21.5871 13.794 22.3187 14.0606 22.8921Z" fill="#FBD3B8"/>
<path d="M21.244 26.31C22.1462 26.31 22.9936 26.0156 23.7831 25.4231L24.1383 25.3192C24.2752 25.3287 24.4114 25.3316 24.5477 25.3316C25.1467 25.3316 25.7326 25.2444 26.3046 25.0116C28.1253 24.2631 29.2509 22.906 29.6515 20.9059C29.6772 20.777 29.6903 20.6481 29.8537 20.5976C30.3707 20.4343 30.8607 20.1977 31.2525 19.8103C31.4063 19.6565 31.5608 19.6104 31.7227 19.6104C31.8164 19.6104 31.9167 19.6265 32.02 19.647C32.3913 19.7283 32.7516 19.7671 33.1017 19.7671C34.3042 19.7671 35.3896 19.3064 36.3424 18.4232C37.4424 17.4103 38.0005 15.9917 37.999 14.571C37.999 13.4827 37.6717 12.3936 37.0052 11.4804C36.9378 11.3881 36.8829 11.2878 36.8829 11.1545C36.8829 11.1472 36.8829 11.1428 36.8844 11.1369C36.8858 11.071 36.8873 11.0065 36.8873 10.9421C36.8873 10.2661 36.7694 9.61065 36.5204 8.97642C36.048 7.78047 35.2534 6.9009 34.16 6.30549C33.4459 5.91806 32.6813 5.74449 31.8823 5.74449C31.8494 5.74449 31.8149 5.74449 31.7834 5.74596L31.5264 5.64416C30.7735 4.88104 29.883 4.37351 28.8569 4.14208C28.4453 4.04907 28.0367 4 27.6273 4C27.0853 4 26.5456 4.08349 26.0109 4.2556C25.1929 4.51778 24.4715 4.95134 23.849 5.5614L23.6498 5.60388C23.3898 5.46473 23.1115 5.36733 22.8303 5.28384C22.3169 5.13077 21.8035 5.05168 21.2879 5.05168C20.8265 5.05168 20.3659 5.11466 19.9052 5.24575C18.1453 5.74742 16.8988 6.87673 16.1701 8.62196L15.9343 8.89073C15.4598 9.08554 15.0137 9.35359 14.6058 9.6707C14.3956 9.83329 14.1759 10.001 13.9994 10.2031C13.8097 10.4184 13.6464 10.6374 13.4414 10.8359C13.2107 11.0622 13.0312 11.4035 12.8774 11.6876C12.5603 12.275 12.3355 12.9158 12.1678 13.5654C12.0528 14.0048 12.014 14.4809 12.0015 14.9415C12.0001 14.9789 12.0001 15.0133 12.0001 15.0507C12.0001 15.5326 12.0748 16.0101 12.1773 16.4817C12.4197 17.6051 12.9089 18.6195 13.6735 19.4727C13.735 19.5393 13.7797 19.6118 13.7797 19.7056C13.7797 19.7297 13.7753 19.7583 13.7687 19.7861C13.6823 20.1428 13.6354 20.506 13.6354 20.873V20.9088C13.6354 21.5877 13.7929 22.3194 14.0609 22.8921C14.8328 24.5538 16.3796 25.5572 18.1182 25.5572C18.2545 25.5572 18.3921 25.5513 18.5313 25.5396C18.5555 25.5367 18.5774 25.5352 18.6001 25.5352C18.7034 25.5352 18.7935 25.5594 18.8938 25.6216C19.2629 25.8494 19.6489 26.0405 20.0744 26.1533C20.4721 26.258 20.8639 26.31 21.244 26.31ZM24.328 23.051C24.2079 23.051 24.0943 23.1184 23.9984 23.2575C23.767 23.6018 23.548 23.9518 23.2477 24.2389C22.697 24.7691 21.9595 25.0321 21.2235 25.0321C20.4889 25.0321 19.7536 24.7691 19.2029 24.2389C19.0915 24.1298 18.9971 23.995 18.8176 23.995L18.7151 23.8456C18.7415 23.5915 18.6529 23.4135 18.4002 23.3549L18.2991 23.2246C18.2772 23.0737 18.2098 23.0276 18.1278 23.0276C18.0721 23.0276 18.0091 23.0496 17.9483 23.0752C17.7352 23.1675 17.6283 23.4392 17.7191 23.6662C17.7967 23.8544 17.9029 24.0295 18.0033 24.2257C17.9168 24.2587 17.8297 24.2704 17.7462 24.2704C17.5572 24.2704 17.3734 24.2074 17.2042 24.154C15.5586 23.6332 14.578 21.9429 14.9376 20.2277C15.0635 19.625 15.3045 19.097 15.6992 18.6371C15.8398 18.4745 15.9431 18.2848 15.8098 18.0497C15.7168 17.8834 15.585 17.8263 15.4268 17.8263C15.3938 17.8263 15.358 17.8293 15.3221 17.8336L15.1229 17.9479C14.9259 18.1493 14.7713 18.3873 14.6065 18.6371C14.1386 18.1434 13.8083 17.5568 13.5776 16.9182C13.3425 16.2657 13.2172 15.5867 13.2421 14.8822C13.2575 14.4977 13.3007 14.1096 13.3901 13.7361C13.4728 13.4021 13.6237 13.1568 13.7643 12.8558C14.0485 12.2332 14.4527 11.6635 14.909 11.1772C15.1917 10.8776 15.4715 10.5591 15.8303 10.3569C16.4843 9.99075 17.1684 9.74833 17.9029 9.65239C18.1424 9.6209 18.2816 9.46564 18.2933 9.22323C18.3057 8.994 18.1798 8.82922 17.9703 8.76111C17.9256 8.74719 17.881 8.74133 17.8341 8.74133C17.7162 8.74133 17.5902 8.78015 17.4437 8.8131C17.6634 8.32242 17.9388 7.9306 18.2845 7.6025C19.1582 6.77493 20.1352 6.32453 21.2352 6.32453C21.5618 6.32453 21.8965 6.36407 22.2451 6.4461C22.552 6.51641 22.8391 6.6226 23.1232 6.75589L23.1877 6.99537L23.0097 7.31981C22.8662 7.6025 22.9182 7.81928 23.1628 7.96649C23.2323 8.00823 23.307 8.02801 23.3795 8.02801C23.5304 8.02947 23.6754 7.93793 23.767 7.75777C24.12 7.07593 24.585 6.4981 25.2017 6.06454C25.9348 5.54822 26.7265 5.27724 27.5855 5.27724C27.7547 5.27724 27.9268 5.2875 28.1011 5.3102C29.7489 5.5094 30.8951 6.42852 31.6194 7.95257L31.7578 8.32974C31.8479 8.53334 31.9797 8.63514 32.1423 8.63514C32.2067 8.63514 32.2749 8.61976 32.3481 8.589C32.5737 8.4916 32.6696 8.24772 32.5678 7.98407C32.4506 7.67794 32.3327 7.37108 32.1547 7.07007C32.2236 7.0525 32.291 7.04151 32.3583 7.04151C32.5392 7.04151 32.7099 7.1001 32.8688 7.14917C34.2361 7.56808 35.1399 8.50038 35.5434 9.92337C35.6782 10.4009 35.7053 10.9003 35.6364 11.3984C35.6049 11.6232 35.6664 11.7982 35.8071 11.9659C36.6251 12.9429 36.9334 14.0693 36.6808 15.3458C36.3893 16.8237 35.5134 17.7919 34.1702 18.2965C33.8018 18.4342 33.4232 18.5023 33.0372 18.5023C32.786 18.5023 32.5305 18.4745 32.2749 18.4144C32.0962 18.3741 32.0573 18.3111 32.1394 18.1478C32.343 17.7443 32.4477 17.31 32.5063 16.8633C32.5363 16.6414 32.4887 16.4487 32.2836 16.3345C32.2141 16.2957 32.1489 16.2781 32.083 16.2781C31.9841 16.2781 31.8896 16.3198 31.8003 16.3902L31.6545 16.7219C31.4487 17.9926 30.7764 18.8677 29.6156 19.3365C29.56 19.357 29.5182 19.3687 29.4823 19.3687C29.3886 19.3687 29.3608 19.2896 29.3491 19.1658C29.2971 18.5836 29.1008 18.0475 28.8613 17.5268C28.7178 17.2163 28.5083 16.9299 28.3289 16.6414C28.1509 16.3572 28.0835 16.0262 28.0205 15.6973C27.9415 15.2814 27.9217 14.8515 27.9891 14.4311C28.055 14.0188 28.3106 13.7265 28.5757 13.4292C28.7881 13.1926 28.7998 12.9275 28.613 12.7364C28.5354 12.6566 28.4351 12.6177 28.3303 12.6177C28.1985 12.6177 28.0608 12.6793 27.9502 12.7979C27.6273 13.1443 27.3731 13.5559 27.2113 14.0078C27.0611 14.4245 26.9205 14.9657 27.0062 15.4102L26.744 15.2975L26.5067 15.2198L26.4687 15.2037C26.2336 15.0946 25.9963 15.0074 25.748 14.9401C25.595 14.8998 25.5371 14.8207 25.4917 14.6874C25.1775 13.7566 24.6378 12.9964 23.879 12.4024C23.6095 12.1915 23.3283 11.9835 23.0126 11.8744C22.2781 11.6217 22.0891 10.7092 22.2393 10.1101L22.3733 9.76152C22.4949 9.50006 22.4399 9.29207 22.2019 9.14267C22.1272 9.09433 22.0532 9.07163 21.9829 9.07163C21.8606 9.07163 21.7442 9.14413 21.6453 9.29207C21.4102 9.63555 21.3341 10.0296 21.3384 10.4426C21.3414 10.7121 21.3267 10.9824 21.4219 11.2431C21.4791 11.3998 21.4175 11.4372 21.2901 11.4372H21.2601C21.1934 11.4342 21.1261 11.4335 21.0572 11.4335C20.6815 11.4335 20.3109 11.4796 19.9484 11.58C19.6628 11.6591 19.5178 11.8832 19.5727 12.1256C19.6225 12.3475 19.7946 12.4801 20.0202 12.4801C20.0722 12.4801 20.1264 12.4727 20.1835 12.4596C20.5182 12.3739 20.8419 12.3321 21.1517 12.3321C22.1975 12.3321 23.1056 12.8008 23.901 13.6387C24.1544 13.9074 24.347 14.226 24.5059 14.5688C24.588 14.7504 24.533 14.7592 24.3836 14.765C23.5766 14.7995 22.8164 15.0118 22.106 15.4161C21.9251 15.5179 21.7742 15.6505 21.7742 15.8856C21.7742 16.0591 21.8518 16.1953 21.9998 16.2825C22.0686 16.3228 22.1375 16.3426 22.2063 16.3426C22.2795 16.3426 22.3513 16.3213 22.4201 16.2759C23.08 15.8665 23.7802 15.6856 24.5176 15.6856C24.7125 15.6856 24.908 15.6973 25.1087 15.7222C25.7151 15.7947 26.298 16.1119 26.8056 16.4531C27.896 17.1848 28.5193 18.4862 28.5354 19.8242C28.5596 21.7555 27.3775 23.3623 25.5503 23.9342C25.2405 24.0295 24.9219 24.039 24.6019 24.0763C24.5865 23.9255 24.6722 23.8368 24.7227 23.7365C24.8362 23.4941 24.7813 23.2759 24.5645 23.1323C24.4832 23.0781 24.4041 23.051 24.328 23.051Z" fill="#FF82A0"/>
<path d="M18.3431 21.6525C18.5064 21.6525 18.6426 21.5361 18.7518 21.3024C18.9056 20.967 19.1319 20.7202 19.479 20.5869C19.6496 20.5232 19.8108 20.4939 19.9682 20.4939C20.3513 20.4939 20.7028 20.6616 21.0426 20.8835C21.7142 21.32 22.4297 21.5954 23.2045 21.5954C23.2507 21.5954 23.2954 21.5939 23.3437 21.5924C23.3869 21.5939 23.4316 21.5939 23.477 21.5939C24.3251 21.5939 25.0794 21.3251 25.7627 20.8235C26.011 20.6426 26.0564 20.4002 25.9099 20.1753C25.8198 20.0362 25.7122 19.9644 25.5862 19.9644C25.4954 19.9644 25.3929 20.0025 25.2845 20.0801C24.6927 20.4902 24.0673 20.707 23.4038 20.707C23.146 20.707 22.8845 20.6741 22.615 20.6081C21.4645 20.3269 20.6874 19.5938 20.267 18.4535C19.958 17.6084 20.0085 16.7625 20.3058 15.9232C20.4003 15.6603 20.2839 15.4193 20.0488 15.3337C20.007 15.319 19.9602 15.3117 19.917 15.3117C19.739 15.3117 19.5581 15.4252 19.4995 15.6105C19.4351 15.8068 19.3347 15.9877 19.3215 16.2015C19.3113 16.3948 19.2212 16.4725 19.0462 16.4725C19.0293 16.4725 19.0118 16.4725 18.9942 16.471C18.16 16.408 17.4723 15.6749 17.4562 14.8085C17.4511 14.6006 17.435 14.4035 17.2673 14.2747C17.1896 14.2131 17.1047 14.1787 17.0131 14.1787C16.9531 14.1787 16.8916 14.1919 16.8293 14.2234C16.6301 14.3252 16.573 14.4958 16.5715 14.7082C16.5554 16.1136 17.6576 17.3191 18.951 17.3564C19.1289 17.363 19.1765 17.4165 19.1978 17.6025C19.2615 18.2397 19.4175 18.8563 19.7375 19.4122C19.8496 19.6055 19.7617 19.6041 19.6145 19.6246C18.8235 19.7403 18.2787 20.2083 17.9476 20.9494C17.8209 21.2307 17.9271 21.506 18.1637 21.6108C18.2281 21.6386 18.286 21.6525 18.3431 21.6525Z" fill="#FF82A0"/>
<path d="M30.9076 14.9271C31.1185 14.9271 31.2877 14.7623 31.3594 14.5038C31.5762 13.7268 31.5484 12.9549 31.3353 12.1873C31.295 12.035 31.3265 11.972 31.4473 11.92C31.7022 11.8102 31.9548 11.7494 32.2017 11.7494C32.5071 11.7494 32.8044 11.8417 33.0937 12.0511C33.2013 12.1295 33.3105 12.1676 33.4152 12.1676C33.547 12.1676 33.6686 12.1053 33.7565 11.9823C33.9227 11.7538 33.8714 11.5231 33.599 11.3224C33.153 10.9921 32.6909 10.8383 32.217 10.8383C31.856 10.8383 31.4898 10.9262 31.1185 11.0924C31.054 11.121 31.005 11.1357 30.9596 11.1357C30.8849 11.1357 30.8329 11.0924 30.7713 10.9994C30.2118 10.1675 29.4648 9.61819 28.5149 9.36699C28.3157 9.31426 28.1033 9.2835 27.9393 9.13849C27.5292 8.77451 27.4874 8.13003 27.8404 7.65399C28.0455 7.37716 28.0382 7.11643 27.8221 6.95238C27.7357 6.88647 27.6456 6.85352 27.5577 6.85352C27.4127 6.85352 27.2721 6.93847 27.1491 7.10325C26.7133 7.69134 26.6225 8.34681 26.8495 9.03523C26.9257 9.26226 26.8678 9.2835 26.6869 9.32232C25.7803 9.52152 25.0259 9.99097 24.432 10.7314C24.2511 10.9592 24.2841 11.2506 24.495 11.4198C24.5711 11.4813 24.6502 11.5114 24.7308 11.5114C24.8597 11.5114 24.993 11.433 25.1248 11.2792C25.7503 10.5373 26.5383 10.1587 27.3527 10.133C27.3973 10.1316 27.4391 10.1316 27.483 10.1316C27.8434 10.1316 28.1048 10.1719 28.3582 10.2495C29.2722 10.5358 29.9533 11.1254 30.3466 12.0335C30.4945 12.3734 30.6637 12.741 30.671 13.0984C30.6791 13.4909 30.6278 13.9047 30.5099 14.2958C30.4286 14.5697 30.5648 14.848 30.7889 14.911C30.8299 14.9213 30.8702 14.9271 30.9076 14.9271Z" fill="#FF82A0"/>
<path d="M14.9954 14.6436C15.232 14.6436 15.437 14.4312 15.4217 14.1258C15.396 13.5545 15.585 13.0917 16.0083 12.7314C16.1819 12.5834 16.3811 12.4948 16.6081 12.4516C16.9252 12.3915 17.068 12.1418 16.9897 11.8379C16.9435 11.6555 16.7699 11.542 16.5619 11.542C16.5187 11.542 16.4704 11.5464 16.4243 11.5581C15.3184 11.8174 14.5582 12.7958 14.5509 14.0342C14.5479 14.1932 14.5494 14.4312 14.7574 14.5689C14.835 14.6209 14.9178 14.6436 14.9954 14.6436Z" fill="#FF82A0"/>
<path d="M33.8377 16.5303C33.8721 16.5303 33.9065 16.5274 33.9409 16.5186C34.9208 16.282 35.6166 15.4244 35.588 14.4277L35.5748 14.1047C35.5536 13.7759 35.38 13.5693 35.1288 13.5693C35.1142 13.5693 35.0988 13.5708 35.0827 13.5723C34.7956 13.5994 34.6594 13.8132 34.7099 14.1838C34.7656 14.5617 34.6879 14.9052 34.4631 15.1974C34.2749 15.4457 34.0039 15.5577 33.7154 15.6368C33.4349 15.7137 33.3184 15.9554 33.3931 16.219C33.4459 16.3999 33.6399 16.5303 33.8377 16.5303Z" fill="#FF82A0"/>
<defs>
<linearGradient id="paint0_linear_219_1540" x1="7.60067" y1="24.4999" x2="42.6226" y2="24.4999" gradientUnits="userSpaceOnUse">
<stop stop-color="white"/>
<stop offset="1" stop-color="white"/>
</linearGradient>
</defs>
</svg>
