<svg width="50" height="50" viewBox="0 0 50 50" fill="none" xmlns="http://www.w3.org/2000/svg">
<path d="M23.7181 39.1005L22.5327 46.5297C22.5327 46.5297 22.453 48.0313 24.429 48.5057C26.4057 48.9795 31.1472 49.0592 34.2309 48.0313C34.2309 48.0313 35.1784 47.4778 35.1784 46.9256C35.1784 46.9256 34.7047 38.8633 34.4675 38.943C34.2309 39.0208 23.7181 39.1005 23.7181 39.1005Z" fill="#F1C9B2"/>
<path d="M23.7181 39.1005L22.5327 46.5297C22.5327 46.5297 22.453 48.0313 24.429 48.5057C26.4057 48.9795 31.1472 49.0592 34.2309 48.0313C34.2309 48.0313 35.1784 47.4778 35.1784 46.9256C35.1784 46.9256 34.7047 38.8633 34.4675 38.943C34.2309 39.0208 23.7181 39.1005 23.7181 39.1005Z" fill="#FBD5BB"/>
<path d="M32.5993 48.4489C32.9721 48.0799 33.3102 47.628 33.3038 47.0404C33.2755 43.7028 33.2935 42.0295 33.2665 41.2929C33.8014 41.0981 34.286 40.8628 34.7232 40.5967C34.9443 42.9353 35.1783 46.9266 35.1783 46.9266C35.1783 47.4788 34.2301 48.0323 34.2301 48.0323C33.7255 48.2001 33.174 48.337 32.5993 48.4489ZM31.6543 42.295C31.5836 42.295 31.509 42.2886 31.4332 42.2719C30.8688 42.1549 30.3018 42.0752 29.7432 41.9653C30.7505 41.928 31.4229 41.7686 31.4377 41.7653C31.9217 41.6856 32.3736 41.5809 32.7979 41.4504C32.7773 41.4825 32.7587 41.5146 32.7368 41.5468C32.4977 41.9209 32.1525 42.295 31.6543 42.295Z" fill="#F7BA97"/>
<path d="M24.6661 42.2287C23.9262 42.2589 23.9488 43.7614 23.9488 43.7614L23.156 45.9283C23.156 45.9283 23.005 47.6648 24.953 48.0347C24.953 48.0347 25.6702 48.1631 26.5913 48.1631C28.1844 48.1555 30.3891 47.778 30.5854 45.7168C30.7364 44.1766 30.7213 43.7765 30.6684 43.7765C30.6005 43.7765 30.4797 44.2899 30.4797 44.2899C30.4797 44.2899 30.1172 42.9233 28.8488 42.9233C28.8488 42.9233 25.5494 42.3344 24.7642 42.2362C24.7491 42.2362 24.7265 42.2287 24.7114 42.2287H24.6661ZM23.4505 46.2378C23.5033 44.237 24.3716 43.3159 24.3716 43.3159C24.5151 46.0717 24.2357 46.7059 23.9488 46.7059C23.6996 46.7059 23.4505 46.2378 23.4505 46.2378Z" fill="url(#paint0_linear_219_1756)"/>
<path d="M24.3691 43.3171C24.3504 43.3452 23.5047 44.2667 23.4486 46.238C23.4486 46.238 23.7024 46.7034 23.9459 46.7034C24.2343 46.709 24.5115 46.0741 24.3691 43.3171Z" fill="url(#paint1_linear_219_1756)"/>
<path d="M20.9667 8.17022C20.0777 3.5862 17.6709 2.7518 16.4251 4.10625C14.9023 5.75896 17.3109 12.5389 18.0168 17.3145C18.6821 21.7982 18.9142 25.6391 18.9142 25.6391L24.4393 23.0839C24.4393 23.0839 22.0145 13.5674 20.9667 8.17022Z" fill="#FBD5BB"/>
<path d="M30.069 23.4637C30.069 23.4637 29.8016 19.149 29.6101 14.6274C29.4166 10.1063 29.6878 2.14295 28.1367 1.3722C26.5855 0.601444 24.8923 1.82411 24.9045 5.71195C24.9193 10.5621 24.8467 21.9209 24.8467 21.9209L30.069 23.4637Z" fill="#FBD5BB"/>
<path d="M36.4542 3.09414C35.0471 2.08489 33.179 3.0215 32.5677 6.85984C31.8059 11.6489 29.916 22.8503 29.916 22.8503L35.0098 25.1908C35.0098 25.1908 35.2502 20.9083 35.7851 16.4142C36.3186 11.9215 37.8608 4.10338 36.4542 3.09414Z" fill="#FBD5BB"/>
<path d="M42.1849 8.60088C40.9796 7.56656 39.1964 8.27046 38.3272 11.7302C37.2454 16.05 34.6143 26.1392 34.6143 26.1392L39.0845 28.6881C39.0845 28.6881 39.6489 24.7925 40.4987 20.7272C41.3498 16.6613 43.3908 9.63712 42.1849 8.60088Z" fill="#FBD5BB"/>
<path d="M38.9087 23.82C37.5305 21.9796 35.2735 21.5816 35.2735 21.5816C35.1514 20.7209 34.3131 20.1218 32.8751 19.8473C31.4416 19.5715 30.3726 20.3436 30.3726 20.3436C29.3196 21.239 29.067 18.0319 27.5409 17.9696C26.6506 17.9323 25.6124 19.1582 24.9014 20.1861C24.8944 20.3166 24.8944 20.4451 24.8744 20.5737C24.7877 21.1458 24.6392 21.1105 24.3274 21.2326C23.8787 21.4068 23.7141 20.897 23.457 20.6585C23.1606 20.3841 22.658 20.1591 22.2427 20.1051C21.0657 19.9559 19.1031 21.043 18.8479 25.7099C18.592 30.3769 19.5826 35.5838 22.8662 39.309C26.1492 43.0348 31.4358 41.7646 31.4358 41.7646C37.0162 40.8537 38.3572 36.359 38.7512 34.068C39.144 31.7789 40.2876 25.6604 38.9087 23.82Z" fill="#FBD5BB"/>
<path d="M24.2402 29.1647C24.1335 28.9802 24.0101 28.8041 23.8674 28.6382C22.7636 27.3391 20.9598 27.2227 19.5463 26.4282C17.3131 25.1753 16.1881 22.0949 14.2455 20.5103C12.6223 19.1841 7.68603 18.3337 7.16534 21.2585C7.07598 21.7664 7.7471 22.0897 8.09551 22.2999C13.4092 25.5057 15.8885 31.9945 19.624 36.7038C20.6211 37.9599 23.4103 40.285 24.6818 40.0228C26.584 39.63 24.9004 34.9135 24.9306 33.491C24.9595 32.0722 24.9782 30.4311 24.2402 29.1647Z" fill="#FBD5BB"/>
<path d="M18.3397 19.6872C18.3397 19.6852 18.3397 19.682 18.3377 19.6801C18.3397 19.682 18.3397 19.6852 18.3397 19.6872ZM18.3377 19.6801V19.6704V19.6801ZM18.3377 19.6704C18.2452 18.9183 18.1385 18.1257 18.0176 17.3132C17.4738 13.6484 15.9297 8.8021 15.9297 6C15.9297 8.8021 17.4738 13.6484 18.0176 17.3132C18.1385 18.1257 18.2452 18.9183 18.3377 19.6704Z" fill="#FDE3D7"/>
<path d="M19.0433 23.9849C18.896 23.4314 18.7707 22.869 18.6331 22.3103C18.5553 21.528 18.4576 20.639 18.3406 19.6869C18.3406 19.6857 18.3387 19.6818 18.3387 19.6805V19.6702H18.3368C18.2442 18.9181 18.1394 18.1262 18.0186 17.313C17.4754 13.6482 15.9307 8.80189 15.9307 5.99979C15.9307 5.17504 16.0631 4.52771 16.3948 4.1388C16.2431 4.31815 16.1325 4.55664 16.0579 4.83948C16.3099 4.34707 16.6757 3.97102 17.1823 3.89131C17.2838 3.87459 17.3822 3.86816 17.4767 3.86816C19.3415 3.86816 19.7086 6.88883 20.0795 8.19249C21.0283 11.5288 21.7039 14.9184 22.5248 18.2817C22.6945 18.9773 22.8906 19.6702 23.0397 20.3696C22.7871 20.2353 22.4998 20.1376 22.2439 20.1054C22.2368 20.1054 22.2285 20.1035 22.2214 20.1035C22.2709 18.8391 21.8691 17.3348 21.6936 16.5866C21.2295 14.6272 20.73 12.6769 20.2132 10.731C19.9374 9.69093 19.6835 8.66497 19.4836 7.60623C19.3293 6.79369 19.1448 5.74909 18.5624 5.11076C18.2969 4.82084 17.9781 4.60421 17.631 4.60421C17.5178 4.60421 17.4021 4.62606 17.2838 4.67685C17.2588 4.6807 17.2337 4.6942 17.2093 4.71092C17.1925 4.7212 17.1758 4.72634 17.1565 4.73663C16.5015 5.12618 16.4777 6.33342 16.4835 6.98525C16.4893 7.90128 16.6931 8.78711 16.9688 9.65878C17.3385 11.4491 17.8019 13.2098 18.0951 15.0219C18.2879 16.2086 18.5084 17.401 18.6588 18.5948C18.7418 19.2485 18.7778 19.9023 18.9115 20.5509C19.033 21.1532 19.2766 21.6649 19.67 21.9561C19.4122 22.4878 19.1937 23.1569 19.0433 23.9849Z" fill="#F7BA97"/>
<path d="M35.7827 21.6452C36.0759 20.5177 36.3973 19.2732 36.7193 18.0267C36.3973 19.2732 36.0759 20.5177 35.7827 21.6452ZM24.7402 21.0101H24.7363C24.7865 20.9407 24.8231 20.8391 24.8553 20.6836C24.8623 19.3645 24.8758 17.1306 24.8861 14.7059C24.8758 17.1358 24.8623 19.3748 24.8553 20.6939C24.825 20.8456 24.7878 20.9446 24.7402 21.0101ZM29.9098 20.4817C29.9066 20.4804 29.9021 20.4804 29.8983 20.4785C29.9021 20.4804 29.9066 20.4804 29.9098 20.4817ZM30.1676 20.4714C30.1676 20.4714 30.1676 20.4701 30.1663 20.4701C30.2203 20.4496 30.2743 20.4174 30.3322 20.3731C30.3399 20.3262 30.3489 20.2786 30.3572 20.2297C30.3489 20.2786 30.3399 20.3281 30.3322 20.3769C30.2762 20.4194 30.2203 20.4515 30.1676 20.4714ZM24.8861 14.6943V14.6924V14.6943Z" fill="#FDE3D7"/>
<path d="M24.8545 20.6938C24.8628 19.3747 24.8744 17.1357 24.8847 14.7065V14.693C24.8995 11.4737 24.9104 7.91881 24.9046 5.71068C24.9046 5.69911 24.9033 5.6869 24.9033 5.6734C24.9033 2.54088 26.0161 1.1543 27.2619 1.1543C27.5132 1.1543 27.7684 1.20958 28.0211 1.31822C27.7697 1.20958 27.5165 1.15558 27.269 1.15558C26.9019 1.15558 26.5458 1.27579 26.2257 1.52521C26.4487 1.41464 26.6898 1.35036 26.9289 1.35036C27.2233 1.35036 27.5165 1.45 27.7646 1.69427C28.4878 2.39882 28.5476 3.53856 28.5778 4.48866C28.6337 6.19345 28.7385 7.89502 28.788 9.60045C28.8471 11.6395 28.9198 13.6779 28.9789 15.717C29.0078 16.7192 29.0014 17.7149 28.8928 18.7139C28.8812 18.8122 28.867 18.9157 28.8503 19.0192C28.5778 18.5686 28.2544 18.1552 27.8154 18.0164C27.9292 17.5053 27.9954 16.9789 28.05 16.4755C28.3052 14.1067 28.1953 11.6594 28.1136 9.28354C28.0596 7.68032 28.0551 6.08481 28.0211 4.48288C28.0069 3.91397 27.9767 1.98419 27.0234 1.98419C26.9745 1.98419 26.9218 1.98869 26.8678 1.99898C25.8721 2.1989 25.6175 3.32449 25.5925 4.37295C25.435 5.5024 25.4671 6.75593 25.4581 7.15834C25.3964 10.1796 25.462 13.2074 25.3418 16.2268C25.3077 17.092 25.1001 18.4837 25.4922 19.3946C25.2794 19.6556 25.0795 19.9269 24.9014 20.1853C24.8943 20.3164 24.8943 20.445 24.8744 20.5736C24.868 20.6173 24.8609 20.6565 24.8545 20.6938ZM29.8975 20.4791C29.8718 20.0047 29.8429 19.4885 29.8139 18.9427C29.8429 19.4885 29.8718 20.0047 29.8975 20.4791ZM28.0243 1.32015C28.0243 1.32015 28.0224 1.32015 28.0224 1.31822C28.0224 1.32015 28.0243 1.32015 28.0243 1.32015Z" fill="#F7BA97"/>
<path d="M30.332 20.3776C30.341 20.3281 30.3487 20.2793 30.3577 20.2304C30.962 16.6235 32.0387 10.192 32.5684 6.85953C33.0293 3.96037 34.2083 2.71777 35.3628 2.71777C35.71 2.71777 36.0558 2.82963 36.3772 3.0424C36.0558 2.83091 35.7138 2.71906 35.368 2.71906C34.9598 2.71906 34.549 2.87462 34.1659 3.20375C34.432 3.06297 34.7181 2.98133 35.0086 2.98133C35.2767 2.98133 35.5473 3.05076 35.807 3.21532C37.0008 3.96551 36.5199 6.13635 36.3065 7.23045C35.9047 9.27915 35.6174 11.3651 35.3866 13.4415C35.2362 14.7979 35.1886 16.1664 35.0343 17.5228C34.9347 18.4067 34.8164 19.4667 34.2353 20.1848C34.2147 20.2098 34.1929 20.2356 34.1729 20.2593C33.8187 20.0832 33.3855 19.9444 32.877 19.8473C32.6604 19.8055 32.4521 19.7881 32.2554 19.7881C32.8333 19.5059 33.3578 18.1438 33.4703 17.8545C34.2404 15.8495 34.2912 13.5418 34.7026 11.4436C35.1211 9.30293 35.6071 7.17131 35.8764 5.00368C35.9793 4.18086 35.5782 3.64731 35.0588 3.64731C34.765 3.64731 34.4333 3.8183 34.1357 4.204C33.3835 5.17467 33.2293 6.53233 33.1431 7.81156C32.9972 8.71731 32.8892 9.62949 32.7452 10.5057C32.4052 12.5981 31.9173 14.659 31.6228 16.7591C31.5174 17.5074 31.0944 19.0971 31.7405 19.702C31.7919 19.7509 31.8446 19.7849 31.8973 19.8068C30.9826 19.9051 30.3745 20.3436 30.3745 20.3436C30.359 20.3558 30.3455 20.3673 30.332 20.3776ZM36.3804 3.04433L36.3791 3.0424L36.3804 3.04433Z" fill="#F7BA97"/>
<path d="M38.6325 23.4821C37.9704 22.7409 37.1727 22.2736 36.5208 21.9869C36.2888 21.8551 36.0451 21.7381 35.7822 21.6468C36.0747 20.5186 36.3968 19.2741 36.7182 18.0283C37.3269 15.6743 37.9312 13.3157 38.3291 11.7318C38.9572 9.22409 40.0661 8.16406 41.0894 8.16406C41.4649 8.16406 41.8313 8.30806 42.1559 8.5774C41.8448 8.32027 41.4976 8.17949 41.137 8.16728C42.2407 8.48933 42.0717 10.1755 41.8396 11.0208C41.2347 13.2186 40.6118 15.4152 40.0493 17.6214C39.7568 18.7714 39.4721 19.9279 39.2201 21.0875C39.0536 21.8499 39.044 22.7409 38.6718 23.4364C38.6608 23.4551 38.6473 23.4705 38.6325 23.4821ZM40.5951 8.90782C40.5083 8.90782 40.4235 8.91939 40.3476 8.94125C39.7736 9.11738 39.5364 9.61686 39.3602 10.1568C39.1198 10.8987 38.9456 11.6643 38.7945 12.4395C38.7572 12.5925 38.7219 12.7397 38.6846 12.8799C38.1446 14.9646 37.5841 17.0461 37.0435 19.132C36.9085 19.6604 36.0818 21.7059 37.2492 21.7059C37.3012 21.7059 37.3572 21.7027 37.4176 21.6944C37.8714 21.6294 38.2057 20.9114 38.3696 20.5643C38.8254 19.5994 39.1674 18.6004 39.4451 17.5706C39.9343 15.7501 40.2171 13.8743 40.8606 12.0982C41.1415 11.3223 41.7612 9.97942 41.2283 9.19195C41.0997 8.9991 40.8387 8.90782 40.5951 8.90782ZM42.1578 8.57869H42.1585V8.57805H42.1578V8.57869Z" fill="#F7BA97"/>
<path d="M29.317 41.973C27.5743 41.973 25.0904 41.5686 23.1735 39.6376C23.6562 39.8883 24.1069 40.0445 24.4688 40.0445C24.508 40.0445 24.5466 40.0426 24.5845 40.0374C24.7471 40.1576 24.9123 40.2714 25.082 40.3794C26.1896 41.0891 27.5357 41.3906 28.885 41.3906C29.9553 41.3906 31.0276 41.2009 31.9841 40.877C36.311 39.4094 37.0085 34.8575 37.191 30.69C37.2251 30.438 37.2585 30.1873 37.2945 29.9347C37.4456 28.8309 37.7175 24.3961 35.6399 23.2615C34.0617 22.3994 32.184 22.0928 30.431 21.8781C29.6403 21.781 28.8413 21.727 28.0442 21.727C26.6435 21.727 25.2447 21.8948 23.8979 22.2946C22.6013 22.6803 21.4288 23.6542 21.2411 25.0627C21.1177 25.9826 21.3768 26.7244 21.8492 27.3544C21.306 27.148 20.7416 26.9732 20.2068 26.7475C19.9799 26.4158 19.7838 26.0623 19.6193 25.6881C19.375 25.134 19.1963 24.5632 19.042 23.9846C19.1924 23.1567 19.411 22.4875 19.6681 21.9559C19.8918 22.1198 20.1612 22.213 20.4864 22.213C20.6266 22.213 20.7776 22.1963 20.9383 22.159C21.8627 21.9456 22.1809 21.099 22.2201 20.1032C22.2272 20.1032 22.2349 20.1045 22.242 20.1045C22.4985 20.1386 22.7858 20.235 23.0378 20.3706C23.0623 20.4774 23.0841 20.5854 23.104 20.694C23.167 21.0212 23.1028 21.4307 22.8771 21.6878C22.5872 22.0234 22.2459 22.2844 21.8987 22.5351C22.1848 22.4181 22.4741 22.3114 22.7518 22.2014C24.3929 21.5592 26.2083 21.2751 27.9671 21.2533C28.0442 21.2533 28.122 21.2513 28.1998 21.2513C29.9843 21.2513 31.7758 21.5001 33.525 21.8318C33.9486 21.9115 34.3857 22.0118 34.8003 22.1622C38.5615 23.2004 38.5236 27.9824 38.307 31.1831C38.1546 33.4381 37.9836 35.7722 37.1351 37.8884C36.9403 38.3725 36.6922 38.8096 36.4068 39.2127C37.8056 37.6872 38.4002 35.8256 38.6715 34.4879C38.3089 36.273 37.3775 38.9877 34.7219 40.596C34.2854 40.8622 33.8014 41.0955 33.2666 41.2922C33.1136 41.3481 32.9561 41.4002 32.7954 41.4497C32.3737 41.5802 31.9218 41.685 31.4371 41.7647C31.4197 41.7679 30.557 41.973 29.317 41.973ZM38.541 23.5122C38.4986 23.5122 38.4561 23.4948 38.4221 23.4678C37.7947 22.9381 37.2116 22.384 36.5206 21.9861C37.173 22.2728 37.9682 22.7401 38.6323 23.4813C38.6053 23.5019 38.5725 23.5122 38.541 23.5122ZM25.228 21.126C25.0364 21.126 24.8757 21.0855 24.7381 21.0109C24.7857 20.9447 24.823 20.8463 24.8538 20.694C24.8615 20.6567 24.8686 20.6181 24.8757 20.5738C24.8937 20.4452 24.8956 20.3167 24.9008 20.1862C25.0801 19.9271 25.28 19.6558 25.4934 19.3955C25.5558 19.5427 25.6355 19.6783 25.7339 19.7966C25.9492 20.0524 26.1723 20.1592 26.3876 20.1592C26.7868 20.1592 27.1564 19.7902 27.3718 19.3479C27.5743 18.9333 27.7138 18.4807 27.8153 18.0166C28.2557 18.1561 28.5771 18.5688 28.8497 19.0194C28.7822 19.4308 28.6465 19.8557 28.3232 20.1289C27.6019 20.7332 26.3555 20.9788 25.4375 21.1105C25.3636 21.1208 25.2935 21.126 25.228 21.126ZM32.7684 20.7904C32.5144 20.7904 32.2535 20.7673 31.9905 20.7416C31.7302 20.7178 31.4679 20.6927 31.2134 20.6927C31.1542 20.6927 31.097 20.694 31.0379 20.6972C30.9916 20.6991 30.9459 20.7011 30.9041 20.7011C30.557 20.7011 30.3211 20.6233 30.1668 20.4722C30.2195 20.4516 30.2735 20.4201 30.3314 20.3777C30.3455 20.3655 30.3584 20.3552 30.3725 20.3436C30.3725 20.3436 30.98 19.9046 31.8948 19.8069C31.9468 19.8287 31.9976 19.839 32.0503 19.839C32.1178 19.839 32.1872 19.8204 32.2547 19.7882C32.4514 19.7882 32.6597 19.805 32.8764 19.8474C33.3842 19.9438 33.8181 20.0827 34.1704 20.2575C33.784 20.6856 33.2936 20.7904 32.7684 20.7904Z" fill="#F7BA97"/>
<path d="M30.0797 35.9502C29.7178 35.3118 29.1977 34.7699 28.6083 34.2923C27.8819 33.5691 27.0211 32.9681 26.1244 32.4737C25.7309 32.2571 25.3279 32.0591 24.9223 31.8688C24.9152 31.7441 24.9062 31.6188 24.8946 31.4934C25.6904 31.8688 26.4728 32.2655 27.1979 32.763C28.0085 33.3203 28.7387 33.9253 29.3398 34.6394C28.4353 32.7952 26.5576 31.5506 24.7288 30.425C24.6439 30.0676 24.5269 29.7237 24.3662 29.3984C25.7309 30.2843 27.1246 31.1154 28.2746 32.2912C29.3263 33.366 29.8592 34.6092 30.0797 35.9502Z" fill="#F7BA97"/>
<path d="M24.4687 40.0439C24.1067 40.0439 23.6561 39.8883 23.1734 39.6376C23.1734 39.6357 23.1714 39.6357 23.1714 39.6357C21.8607 38.9536 20.3134 37.5735 19.6243 36.705C15.8869 31.995 13.4081 25.5062 8.09576 22.3011C7.76727 22.1031 7.15723 21.8061 7.15723 21.351C7.15723 21.3208 7.15916 21.2899 7.16623 21.2578C7.42143 19.8153 8.75788 19.292 10.2377 19.292C11.7554 19.292 13.4248 19.8403 14.2464 20.5108C14.3698 20.6111 14.4913 20.7191 14.6083 20.8329C14.4913 20.7191 14.3698 20.6111 14.2464 20.5108C13.4248 19.8403 11.7573 19.292 10.2409 19.292C8.77652 19.292 7.45357 19.803 7.17651 21.2121C7.23372 21.0289 7.32693 20.8464 7.46257 20.6702C8.05719 19.9001 9.21493 19.6134 10.158 19.6134C10.2023 19.6134 10.246 19.6134 10.2904 19.6153C13.5232 19.7098 15.7242 22.9696 17.4618 25.3102C18.6755 26.9462 19.9303 28.7037 21.6633 29.8312C22.6829 30.4952 23.8001 30.9761 24.8936 31.4942C24.9058 31.6196 24.9141 31.7449 24.9212 31.8703C24.3587 31.6061 23.7898 31.3534 23.2312 31.0828C23.2974 31.1252 23.363 31.1676 23.4311 31.2094C20.9382 29.63 18.6485 28.0467 16.8672 25.6502C15.489 23.7982 14.2072 21.6846 12.0646 20.6297C11.5265 20.3655 10.5803 20.0981 9.71312 20.0981C9.04072 20.0981 8.41718 20.2588 8.07197 20.7056C7.67085 21.2224 8.23975 21.918 8.61195 22.2587C8.85109 22.4753 9.12557 22.645 9.41163 22.7941C9.67198 23.0056 9.94133 23.1965 10.1721 23.3663C11.965 24.6718 13.2757 26.5258 14.5594 28.3109C16.5066 31.0249 18.1136 34.0462 20.6097 36.2846C20.9029 36.6066 21.2057 36.9197 21.5187 37.2244C22.501 38.1816 23.4678 39.223 24.5844 40.0387C24.5464 40.0426 24.5079 40.0439 24.4687 40.0439ZM24.7277 30.4258C24.0675 30.0176 23.4138 29.6261 22.8147 29.2282C21.8086 28.5597 20.8842 27.7452 20.2067 26.7475C20.7415 26.9732 21.3053 27.1474 21.8491 27.3557C22.22 27.85 22.7227 28.2768 23.2736 28.6664C23.6323 28.9203 23.9981 29.1627 24.3658 29.3992C24.5265 29.7245 24.6429 30.0684 24.7277 30.4258Z" fill="#F7BA97"/>
<path d="M38.6725 34.4888C38.7033 34.3416 38.7284 34.2027 38.7503 34.069C38.7863 33.8639 38.828 33.6287 38.8724 33.3677C38.828 33.6287 38.7863 33.8639 38.7503 34.069C38.7284 34.2027 38.7033 34.3416 38.6725 34.4888ZM35.7662 21.7074L35.7817 21.6463L35.7662 21.7074ZM24.3264 21.233C24.5148 21.159 24.6433 21.1385 24.734 21.0099H24.7359C24.6498 21.1333 24.5315 21.1571 24.3598 21.2195C24.3483 21.2246 24.338 21.2285 24.3264 21.233ZM30.0174 20.4982C29.9808 20.4982 29.9448 20.4937 29.9094 20.4828C29.9435 20.4937 29.9756 20.4969 30.009 20.4969C30.0605 20.4969 30.1113 20.4886 30.1633 20.468C30.1633 20.468 30.1653 20.4693 30.1653 20.4712C30.1145 20.4898 30.065 20.4982 30.0174 20.4982ZM42.1843 8.60068C42.1759 8.59361 42.1676 8.58525 42.1573 8.57883C42.1676 8.58525 42.1759 8.59361 42.1843 8.60068ZM42.1573 8.5769H42.156H42.1573ZM16.3945 4.13879C16.4042 4.12722 16.4151 4.11629 16.4254 4.10472C16.4151 4.11629 16.4042 4.12722 16.3945 4.13879ZM36.4541 3.09419C36.429 3.07684 36.4052 3.06012 36.3814 3.04469C36.4052 3.06012 36.429 3.07684 36.4541 3.09419ZM36.3782 3.04341C36.3782 3.04148 36.3763 3.04148 36.3763 3.04148C36.3763 3.04148 36.3782 3.04148 36.3782 3.04341ZM28.1358 1.37141C28.0992 1.35341 28.0619 1.33605 28.0246 1.32062C28.0619 1.33605 28.0992 1.35341 28.1358 1.37141ZM28.0233 1.31934H28.0214H28.0233Z" fill="#FDE3D7"/>
<path d="M38.6722 34.4887C38.7031 34.3414 38.7282 34.2026 38.75 34.0689C38.786 33.8638 38.8278 33.6285 38.8722 33.3676C38.8278 33.6285 38.786 33.8638 38.75 34.0689C38.7282 34.2026 38.7031 34.3414 38.6722 34.4887ZM39.5259 25.9204C39.5542 25.7474 39.5851 25.5681 39.6172 25.3836C39.5851 25.5681 39.5542 25.7474 39.5259 25.9204ZM24.1533 21.2688C24.0858 21.2688 24.0266 21.2502 23.972 21.2213C23.972 21.2193 23.972 21.2181 23.9707 21.2148C24.0279 21.2463 24.0903 21.2669 24.1603 21.2669C24.2092 21.2669 24.2632 21.2573 24.321 21.2348C24.26 21.2586 24.2041 21.2688 24.1533 21.2688Z" fill="#FAC8B0"/>
<path d="M23.9728 21.2218C23.7645 21.1099 23.6327 20.8219 23.4579 20.6593C23.3428 20.5532 23.1988 20.4549 23.04 20.37C22.8903 19.6706 22.6942 18.9783 22.5251 18.2821C21.7023 14.9175 21.028 11.5292 20.0792 8.19289C19.7089 6.88923 19.3399 3.86664 17.4757 3.86664C17.3818 3.86664 17.2841 3.87499 17.1806 3.89235C16.676 3.97206 16.3102 4.34747 16.0576 4.84052C16.1328 4.55768 16.2408 4.31919 16.3951 4.1392C16.4054 4.12762 16.4137 4.11734 16.4253 4.10577C16.7763 3.72457 17.2179 3.51758 17.6917 3.51758C18.9041 3.51758 20.3267 4.87588 20.9669 8.17103C21.7274 12.0865 23.2123 18.1722 23.9709 21.2154C23.9709 21.2186 23.9728 21.2205 23.9728 21.2218Z" fill="#F4A278"/>
<path d="M39.8471 24.081C40.0367 23.0344 40.2566 21.8876 40.4989 20.7267C41.163 17.5492 42.5566 12.5627 42.5566 10.0428C42.5566 12.5627 41.163 17.5492 40.4989 20.7267C40.2566 21.8876 40.0367 23.0344 39.8471 24.081ZM35.7658 21.707L35.7812 21.6459L35.7658 21.707ZM24.3594 21.221C24.5304 21.1567 24.6486 21.1329 24.7354 21.0108C24.7367 21.0108 24.7386 21.0108 24.7386 21.0127C24.6519 21.1349 24.5323 21.1567 24.3594 21.221ZM30.0189 20.501C29.9764 20.501 29.9359 20.494 29.8967 20.4805V20.4792C29.8999 20.4805 29.9051 20.4805 29.9083 20.4824C29.9443 20.4927 29.9809 20.4991 30.0169 20.4991C30.0645 20.4991 30.1134 20.4895 30.1654 20.4708C30.1654 20.4708 30.1654 20.4721 30.1674 20.4721C30.1146 20.4927 30.0658 20.501 30.0189 20.501ZM35.4476 19.5677C35.4476 19.5664 35.4476 19.5664 35.4488 19.5664C35.4476 19.5664 35.4476 19.5664 35.4476 19.5677ZM35.4488 19.558C35.5016 19.011 35.5575 18.4433 35.6205 17.8648C35.5575 18.4433 35.5016 19.011 35.4488 19.558ZM29.8157 18.9428C29.7457 17.6308 29.673 16.1407 29.6087 14.6281C29.673 16.1407 29.7457 17.6308 29.8157 18.9428ZM35.6205 17.8648C35.6205 17.8609 35.6205 17.8577 35.6224 17.8545C35.6205 17.8577 35.6205 17.8609 35.6205 17.8648ZM35.6224 17.8526V17.8474V17.8526ZM35.6237 17.8404V17.8327V17.8404ZM35.6237 17.8327C35.6237 17.8307 35.6237 17.8269 35.6256 17.8256C35.6237 17.8269 35.6237 17.8307 35.6237 17.8327ZM35.6256 17.8185V17.8172V17.8185ZM35.6276 17.8069V17.805V17.8069ZM35.7812 16.4351C35.7812 16.4339 35.7812 16.4306 35.7831 16.4287C35.7812 16.4306 35.7812 16.4339 35.7812 16.4351ZM35.7831 16.4236C35.7831 16.4216 35.7831 16.4184 35.7851 16.4152C36.1592 13.2621 37.0289 8.47176 37.0309 5.54688C37.0289 8.47176 36.1592 13.2621 35.7851 16.4152C35.7831 16.4184 35.7831 16.4216 35.7831 16.4236Z" fill="#FAC8B0"/>
<path d="M29.8974 20.4804C29.5195 20.3531 29.2334 19.6492 28.8503 19.0192C28.867 18.9157 28.8811 18.8122 28.8933 18.7139C29.0013 17.7149 29.0078 16.7192 28.9788 15.717C28.9197 13.6779 28.8471 11.6395 28.7879 9.60045C28.7384 7.89502 28.6336 6.19345 28.5777 4.48802C28.5475 3.53856 28.4884 2.39882 27.7652 1.69427C27.5164 1.45 27.2233 1.35036 26.9288 1.35036C26.6904 1.35036 26.4493 1.41464 26.2256 1.52457C26.5457 1.27579 26.9018 1.1543 27.2689 1.1543C27.5164 1.1543 27.7697 1.20958 28.021 1.31822H28.0223L28.0242 1.32015C28.0615 1.33493 28.0988 1.35357 28.138 1.37222C29.6872 2.14297 29.416 10.107 29.6094 14.628C29.6731 16.1406 29.7464 17.6301 29.8139 18.9427C29.8428 19.4878 29.8717 20.0047 29.8974 20.4791V20.4804Z" fill="#F4A278"/>
<path d="M35.2714 21.563C35.1865 21.014 34.8104 20.5737 34.1721 20.2574C34.192 20.2336 34.2139 20.2105 34.2351 20.1828C34.8156 19.4648 34.9345 18.4048 35.0341 17.5209C35.1878 16.1645 35.2354 14.7979 35.3864 13.4402C35.6166 11.3638 35.9039 9.27979 36.3057 7.22852C36.5191 6.13506 36.9999 3.96422 35.8062 3.21404C35.5471 3.0514 35.2765 2.98005 35.0084 2.98005C34.7192 2.98005 34.4312 3.06297 34.165 3.20183C34.5482 2.87334 34.9596 2.71777 35.3671 2.71777C35.713 2.71777 36.0556 2.82898 36.377 3.04112H36.3789C36.3789 3.0424 36.3802 3.0424 36.3802 3.0424C36.4059 3.05976 36.4297 3.07647 36.4529 3.09383C36.8746 3.39467 37.0301 4.30042 37.0301 5.54559C37.0301 8.47175 36.1585 13.2602 35.7843 16.4152V16.4236C35.7824 16.4255 35.7824 16.4255 35.7824 16.4268V16.4339C35.7824 16.4371 35.7811 16.439 35.7811 16.4409C35.7265 16.8999 35.6757 17.355 35.6268 17.8057V17.8153C35.6268 17.8172 35.6268 17.8172 35.6249 17.8192V17.8327C35.6236 17.8346 35.6236 17.8378 35.6236 17.8397V17.8481C35.6236 17.8494 35.6217 17.8494 35.6217 17.8513V17.8648C35.5587 18.444 35.5008 19.011 35.4507 19.558C35.4488 19.5599 35.4488 19.5632 35.4488 19.5651V19.567C35.3813 20.2728 35.3221 20.9452 35.2714 21.563Z" fill="#F4A278"/>
<path d="M39.5249 25.9201C39.4471 25.0329 39.2594 24.2873 38.9091 23.8199C38.8204 23.7016 38.7278 23.5885 38.6327 23.4818C38.6481 23.4696 38.6596 23.4548 38.6699 23.4362C39.0441 22.74 39.0531 21.849 39.2183 21.0873C39.4728 19.9276 39.755 18.7705 40.0482 17.6211C40.6119 15.4143 41.2335 13.2184 41.8384 11.0205C42.0718 10.1752 42.2396 8.48841 41.1371 8.16699C41.4958 8.17856 41.8449 8.31934 42.1566 8.57712V8.5784H42.1586C42.1663 8.58483 42.1753 8.59319 42.1856 8.60026C42.4479 8.82718 42.5565 9.33887 42.5565 10.0415C42.5565 12.5627 41.1648 17.5485 40.4988 20.7266C40.2571 21.8882 40.0366 23.0344 39.847 24.0809C39.764 24.5367 39.6875 24.9738 39.6168 25.3833C39.5847 25.5678 39.5538 25.7471 39.5249 25.9201ZM36.521 21.9866C36.2336 21.8612 35.9726 21.7693 35.7656 21.7069C35.7708 21.687 35.7759 21.6664 35.783 21.6459C36.0433 21.7378 36.2895 21.8541 36.521 21.9866Z" fill="#F4A278"/>
<path d="M36.4081 39.2128C36.6922 38.8097 36.941 38.3732 37.1345 37.8885C37.9843 35.7717 38.1553 33.4369 38.3077 31.1832C38.5249 27.9825 38.5622 23.1986 34.801 22.1623C34.3858 22.01 33.9493 21.9097 33.5263 21.8306C31.7765 21.5002 29.9849 21.2514 28.1998 21.2514C28.122 21.2514 28.0442 21.2514 27.9684 21.2534C26.209 21.2752 24.3923 21.5594 22.7525 22.2015C22.4747 22.3115 22.1855 22.4182 21.8994 22.5352C22.2465 22.2845 22.5885 22.0216 22.8778 21.6879C23.1034 21.4289 23.1658 21.0213 23.1054 20.6941C23.0842 20.5855 23.0623 20.4775 23.0385 20.3695C23.1979 20.4537 23.3439 20.554 23.4576 20.6587C23.6331 20.8214 23.7656 21.1087 23.9732 21.2206C24.0278 21.2495 24.087 21.2682 24.1532 21.2682C24.204 21.2682 24.2599 21.2579 24.3203 21.2347H24.3222C24.3242 21.2328 24.3255 21.2328 24.3274 21.2328C24.3377 21.2277 24.3492 21.2244 24.3595 21.2193C24.5318 21.155 24.6527 21.1344 24.7394 21.011C24.8764 21.0856 25.0371 21.1261 25.228 21.1261C25.2942 21.1261 25.3636 21.1209 25.4388 21.1107C26.3562 20.977 27.6026 20.7333 28.3239 20.1271C28.6472 19.8559 28.7828 19.4309 28.8503 19.0195C29.2335 19.6495 29.5208 20.3521 29.8969 20.4807C29.9361 20.4942 29.9766 20.5013 30.019 20.5013C30.0666 20.5013 30.1154 20.491 30.1681 20.4723C30.3218 20.6215 30.5571 20.7012 30.9029 20.7012C30.9466 20.7012 30.991 20.6992 31.0379 20.698C31.097 20.6941 31.1549 20.6922 31.2147 20.6922C31.468 20.6922 31.7309 20.7166 31.9919 20.7417C32.2541 20.7674 32.5145 20.7905 32.769 20.7905C33.2936 20.7905 33.7847 20.6857 34.1711 20.2576C34.8094 20.5739 35.1874 21.0162 35.2716 21.5626C35.2697 21.5645 35.2697 21.5677 35.2697 21.5696L35.2729 21.5819C35.2748 21.5819 35.4664 21.6172 35.7659 21.7072C35.9723 21.7696 36.232 21.8608 36.52 21.9862C37.2123 22.3841 37.7928 22.9363 38.4234 23.466C38.4575 23.4949 38.4992 23.5103 38.541 23.5103C38.5738 23.5103 38.6059 23.502 38.631 23.4814C38.7274 23.5881 38.8213 23.7019 38.9094 23.8202C39.2597 24.2875 39.4481 25.0326 39.5258 25.9197V25.9216C39.5554 26.2739 39.5695 26.6499 39.5695 27.0376C39.5695 29.1782 39.1517 31.7502 38.8714 33.3675C38.8277 33.6279 38.7872 33.8638 38.7519 34.0688C38.7274 34.2026 38.7024 34.3408 38.6715 34.4886C38.3996 35.8257 37.8069 37.6873 36.4081 39.2128Z" fill="#F4A278"/>
<path d="M18.8838 25.1963C18.8439 24.6494 18.765 23.6238 18.633 22.308L18.6325 22.31C18.6486 22.4654 18.6637 22.6163 18.677 22.7617C18.7837 23.8609 18.8502 24.7146 18.8838 25.1963Z" fill="#FDE3D7"/>
<path d="M18.8364 25.9452C17.1837 24.6126 16.1359 22.2926 14.6182 20.8398C16.1359 22.2926 17.1837 24.6075 18.8364 25.9401V25.9452ZM18.8486 25.717V25.7099V25.717ZM18.884 25.197C18.8499 24.7142 18.7844 23.8605 18.6789 22.7619C18.7844 23.8592 18.8499 24.7129 18.884 25.195V25.197Z" fill="#FAC8B0"/>
<path d="M18.8838 25.1963C18.8495 24.714 18.7836 23.8603 18.677 22.7629C18.6635 22.6151 18.6484 22.4647 18.6324 22.3106C18.7702 22.8697 18.8951 23.4299 19.0422 23.9855C18.9751 24.3559 18.9212 24.7588 18.8838 25.1963Z" fill="#F4A278"/>
<path d="M20.2068 26.7479C19.9798 26.6534 19.7581 26.548 19.5453 26.4297C19.2959 26.2889 19.0606 26.1269 18.835 25.945V25.9405C18.8369 25.9424 18.8388 25.9424 18.8388 25.9437C18.842 25.8672 18.844 25.7914 18.8472 25.7168V25.7097C18.8568 25.5355 18.869 25.3684 18.8845 25.2019V25.1948C18.9217 24.7583 18.9757 24.3553 19.0432 23.9844C19.1982 24.5636 19.3775 25.1344 19.6192 25.6879C19.7838 26.0626 19.9818 26.4162 20.2068 26.7479Z" fill="#F4A278"/>
<path d="M29.3398 34.6396C28.7382 33.9253 28.0095 33.3226 27.1979 32.7635C26.4728 32.2658 25.6903 31.8692 24.8965 31.4929C24.8644 31.1322 24.8116 30.7719 24.7288 30.425C26.5577 31.5508 28.4355 32.7956 29.3398 34.6396Z" fill="#F4A278"/>
<path d="M24.8954 31.4942C23.8001 30.9761 22.6822 30.4952 21.6646 29.8318C19.9302 28.7037 18.6773 26.9462 17.463 25.3121C15.7235 22.9703 13.5244 19.7098 10.2916 19.6153C10.2479 19.6153 10.2042 19.6141 10.1592 19.6141C9.21422 19.6141 8.05841 19.9014 7.46379 20.6702C7.32687 20.8483 7.23495 21.0296 7.17773 21.2121C7.45544 19.803 8.77645 19.292 10.2408 19.292C11.7566 19.292 13.4241 19.841 14.2457 20.5114C14.371 20.613 14.4912 20.7197 14.6095 20.8329L14.6114 20.8348L14.6134 20.8361C14.6146 20.838 14.6166 20.8399 14.6166 20.8399H14.6185C16.1337 22.294 17.1821 24.6127 18.8361 25.9453C19.0598 26.1266 19.2951 26.2905 19.5458 26.4293C19.7579 26.5496 19.9797 26.653 20.206 26.7495C20.8835 27.7452 21.8098 28.5616 22.8159 29.2289C23.4131 29.6281 24.0688 30.0196 24.7289 30.4258C24.8125 30.773 24.8627 31.1323 24.8954 31.4942Z" fill="#F4A278"/>
<path d="M28.6115 34.296C28.0291 33.8235 27.3785 33.4134 26.7492 33.0373C26.1597 32.6837 25.5478 32.3553 24.9287 32.0332C25.5478 32.3553 26.1597 32.6837 26.7492 33.0373C27.3773 33.4121 28.0272 33.8216 28.6083 34.2928L28.6115 34.296Z" fill="#F7BA97"/>
<path d="M24.9291 32.0328C24.5736 31.8464 24.2149 31.6638 23.8575 31.4793C23.7219 31.3925 23.5862 31.3083 23.4525 31.2235C23.4454 31.2183 23.439 31.2151 23.4307 31.21C23.439 31.2151 23.4454 31.2183 23.4525 31.2235C23.5862 31.3083 23.7219 31.3925 23.8575 31.4793C24.2149 31.6638 24.5736 31.8464 24.9291 32.0328Z" fill="#F7BA97"/>
<path d="M28.6085 34.2936C28.0261 33.8211 27.3775 33.4129 26.7488 33.0369C26.158 32.6833 25.5467 32.3548 24.9283 32.0328C24.9264 31.9788 24.9238 31.9241 24.9219 31.8701C25.3281 32.0598 25.7293 32.2577 26.1227 32.475C27.0214 32.9694 27.8821 33.5704 28.6085 34.2936Z" fill="#F4A278"/>
<path d="M24.9285 32.0321C24.573 31.8457 24.2143 31.6632 23.8569 31.4787C23.7213 31.3919 23.5856 31.3077 23.4519 31.2228C23.4449 31.2177 23.4384 31.2145 23.4301 31.2093C23.3639 31.1669 23.2983 31.1245 23.2314 31.082C23.7894 31.3533 24.3596 31.6053 24.9214 31.8695C24.9234 31.9241 24.9266 31.9781 24.9285 32.0321Z" fill="#F4A278"/>
<path d="M27.0261 32.0433C25.786 31.2436 24.4303 30.5699 23.1164 29.8995C22.4324 29.5491 21.8346 29.1576 21.2483 28.6581C20.6845 28.1754 20.0089 27.683 19.692 26.9971L19.6631 27.0176C20.0391 28.0262 21.177 29.0001 22.0493 29.5915C23.1832 30.3584 24.5062 30.9048 25.6986 31.5824C26.9804 32.3126 28.1652 33.032 29.0491 34.2411C29.879 35.3809 30.5751 36.9198 30.2473 38.3475C30.2415 38.3694 30.2859 38.3411 30.291 38.327C31.0007 35.8958 28.9256 33.2672 27.0261 32.0433Z" fill="#E0734C"/>
<path d="M25.5004 39.8898C25.4985 39.8898 25.4966 39.8898 25.4953 39.8885C25.397 39.8358 25.3005 39.7831 25.2041 39.7278C25.2208 39.7085 25.2362 39.6898 25.251 39.6699C25.3462 39.7291 25.4426 39.785 25.5397 39.8428C25.5583 39.8525 25.5204 39.8898 25.5004 39.8898Z" fill="#FFF5E6"/>
<path d="M25.2046 39.7275C21.8008 37.7971 19.0547 34.5745 16.9475 31.3385C15.7794 29.5437 14.5844 27.8049 13.2917 26.1027C12.6855 25.3049 11.9912 24.5547 11.2565 23.8727C10.5661 23.2324 9.82875 22.4263 9.02457 21.9391C9.013 21.932 9.03678 21.9082 9.04964 21.9082H9.05157C9.86089 22.245 10.6329 22.9444 11.304 23.5037C12.0542 24.1298 12.7903 24.8665 13.381 25.6456C13.7282 26.1027 14.1383 26.5212 14.4706 26.9853C14.765 27.3967 14.992 27.8518 15.2986 28.2536C15.935 29.0918 16.4808 29.9854 17.0542 30.868C19.2392 34.2242 21.788 37.5586 25.2522 39.6703C25.2368 39.6902 25.2213 39.7088 25.2046 39.7275Z" fill="#FFF5E6"/>
<path d="M19.1017 18.4652C19.0985 18.4652 19.0946 18.4639 19.0927 18.4601C18.9423 17.9998 18.878 17.4817 18.7906 17.0041C18.6864 16.4506 18.5559 15.9016 18.4415 15.3494C18.2043 14.2084 17.9485 13.0667 17.7151 11.9238C17.2863 9.81528 16.6274 7.57694 16.9238 5.41317L16.9598 5.39453C16.9 6.52206 17.1391 7.62258 17.3474 8.72311C17.5576 9.83071 17.755 10.9486 18.0063 12.0491C18.2686 13.1972 18.4974 14.3537 18.6819 15.5172C18.8323 16.4827 18.9101 17.4868 19.1377 18.4331C19.139 18.4453 19.1152 18.4652 19.1017 18.4652Z" fill="#FFF5E6"/>
<path d="M25.8906 15.1128C25.8854 15.1128 25.8835 15.1109 25.8835 15.1058C25.7434 12.8501 25.7164 10.5732 25.7421 8.31553C25.7639 6.33947 25.7877 4.37819 26.4035 2.4902C26.4074 2.48184 26.4325 2.46191 26.444 2.46191C26.4479 2.46191 26.4492 2.46513 26.4479 2.47027C25.9902 4.53247 26.0056 6.68146 25.9703 8.78994C25.9343 10.8843 25.9484 12.9741 25.9414 15.0691C25.9414 15.0858 25.9054 15.1128 25.8906 15.1128Z" fill="#FFF5E6"/>
<path d="M32.6482 13.2952C32.6411 13.2952 32.6372 13.292 32.6392 13.2837C32.8481 11.7531 33.0345 10.2238 33.2968 8.70284C33.5269 7.36318 33.6587 6.03895 34.1922 4.77772C34.1955 4.76936 34.2173 4.75586 34.2276 4.75586C34.2315 4.75586 34.2327 4.75715 34.2315 4.76293C33.786 6.09166 33.7301 7.5226 33.4916 8.89633C33.237 10.3504 32.9516 11.7981 32.7022 13.2547C32.6989 13.2702 32.6649 13.2952 32.6482 13.2952Z" fill="#FFF5E6"/>
<path d="M38.5323 14.2456C38.5259 14.2456 38.522 14.2423 38.5239 14.2321C38.8762 12.5523 39.2214 10.5268 40.3631 9.19419C40.3695 9.18905 40.3817 9.18262 40.3907 9.18262C40.3965 9.18262 40.3984 9.18712 40.392 9.19933C39.8668 9.9463 39.7196 10.8353 39.4098 11.68C39.1018 12.5202 38.8306 13.3411 38.5921 14.2031C38.5869 14.2186 38.549 14.2456 38.5323 14.2456Z" fill="#FFF5E6"/>
<path d="M34.4046 23.0826H34.3994C31.7362 22.6185 29.0755 22.2919 26.3698 22.2919C26.2663 22.2919 26.1648 22.2938 26.0613 22.2938C26.0445 22.2938 26.0696 22.2662 26.0799 22.2662C26.9754 22.2019 27.8972 22.1582 28.8229 22.1582C30.7533 22.1582 32.7075 22.353 34.4978 22.9791C34.5453 22.9965 34.4463 23.0826 34.4046 23.0826Z" fill="#FFF5E6"/>
<path d="M36.1471 21.7975C34.1627 21.1181 32.0407 20.6494 29.9476 20.6192C28.6151 20.5986 27.2741 20.7375 25.9518 20.9053C24.949 21.0338 24.0278 21.3231 23.0546 21.5449C23.0475 21.5468 23.0289 21.5687 23.0436 21.5655C23.9892 21.3958 24.9033 21.1386 25.8689 21.0216C27.0896 20.8744 28.3136 20.778 29.542 20.7561C31.9288 20.7137 34.6114 21.525 36.8793 22.2424C36.6421 22.0836 36.3965 21.9377 36.1471 21.7975Z" fill="#E0734C"/>
<path d="M30.75 40.7476C30.75 40.7476 34.3852 39.8521 36.4416 34.9512C36.4416 34.9512 35.3861 39.9569 30.75 40.7476Z" fill="#FFF5E6"/>
<path d="M10.2388 19.4491C9.27195 19.4491 7.60573 19.6882 7.32289 21.2863C7.26182 21.6321 7.71887 21.8976 8.05507 22.0924L8.17785 22.165C11.788 24.3429 14.1099 28.0379 16.3572 31.6108C17.4275 33.3143 18.5326 35.0737 19.7488 36.6062C20.4431 37.4818 21.9794 38.8362 23.2452 39.4951C23.2593 39.5022 23.2728 39.5118 23.2844 39.524C23.4219 39.6629 23.5756 39.8037 23.7549 39.956C23.7941 39.9882 23.8147 40.0351 23.8109 40.0865L22.6917 46.5412C22.6885 46.5939 22.6518 47.9162 24.4665 48.3533C25.3318 48.5597 26.7222 48.685 28.1834 48.685C29.5211 48.685 32.0751 48.5802 34.1649 47.8873C34.415 47.7388 35.0212 47.2965 35.0212 46.9256C35.018 46.8105 34.7075 45.1173 34.4671 40.6618C34.4645 40.6027 34.4947 40.5468 34.5455 40.5159C36.6842 39.2611 38.0843 37.0228 38.596 34.0426L38.6532 33.7058C38.9784 31.8377 39.5814 28.3593 39.368 25.9365C39.3667 25.923 39.3667 25.9095 39.3693 25.8954C39.6836 24.0427 40.0102 22.2942 40.3451 20.6955C40.5264 19.8303 40.7584 18.8397 41.0053 17.7893C41.8307 14.2807 42.9595 9.4749 42.0827 8.72151C41.778 8.45923 41.4341 8.32038 41.0882 8.32038C39.998 8.32038 39.0241 9.61054 38.4828 11.7698C37.8696 14.2132 36.7504 18.5446 35.9186 21.7472C35.9089 21.7896 35.8819 21.825 35.844 21.8455C35.8048 21.8674 35.763 21.8725 35.7206 21.859C35.4326 21.7723 35.2462 21.7369 35.2449 21.7369C35.1787 21.7253 35.1279 21.6726 35.1176 21.6051L35.1125 21.5576C35.2674 19.7184 35.4397 17.9828 35.6274 16.3956C35.7412 15.4391 35.8999 14.3405 36.0677 13.175C36.6572 9.07056 37.3919 3.96134 36.3628 3.22337C36.0407 2.99131 35.7039 2.87624 35.3632 2.87624C34.3964 2.87624 33.1943 3.92727 32.725 6.88429C32.185 10.2759 31.0909 16.8096 30.4879 20.4005C30.4815 20.4397 30.4597 20.475 30.4269 20.4988C30.2327 20.6499 30.0341 20.6923 29.8464 20.6274C29.7853 20.6074 29.7429 20.5515 29.7397 20.4872C29.6619 19.0582 29.5481 16.8816 29.4523 14.6368C29.4112 13.6745 29.3906 12.5656 29.3707 11.3918C29.2961 7.24171 29.2029 2.07849 28.0664 1.51473C27.3689 1.1676 26.6747 1.2711 26.1411 1.80593C25.4398 2.51047 25.0579 3.89577 25.0631 5.71048C25.0747 9.54304 25.0322 17.4595 25.0129 20.6852C24.9204 21.1693 24.7545 21.249 24.4923 21.3403C24.4595 21.3525 24.4222 21.3641 24.3855 21.3795C24.2126 21.447 24.0481 21.4373 23.8938 21.3538C23.8571 21.3319 23.8282 21.2966 23.8179 21.2528C23.0189 18.0406 21.5642 12.0707 20.812 8.20017C20.1634 4.86066 18.7261 3.67528 17.6917 3.67528C17.263 3.67528 16.8651 3.85978 16.5417 4.21205C15.5492 5.29072 16.3829 8.93685 17.1897 12.4621C17.5658 14.1052 17.954 15.8016 18.1739 17.2904C18.7042 20.8665 18.9575 24.0061 19.0423 25.1915C19.0275 25.3792 19.0153 25.545 19.0057 25.718C19.0038 25.7617 19.0025 25.806 19.0006 25.8504L18.9967 25.95C18.9954 26.0111 18.9575 26.0632 18.9035 26.0869C18.8501 26.1127 18.7871 26.1043 18.7396 26.0664C17.8184 25.3233 17.0804 24.2787 16.3637 23.2675C15.6848 22.3077 14.9822 21.3152 14.1472 20.6325C13.3192 19.9575 11.6395 19.4491 10.2388 19.4491ZM28.1834 49C26.6978 49 25.281 48.8727 24.3939 48.6593C22.3124 48.1618 22.3754 46.538 22.3754 46.5225L23.4894 40.1437C23.3371 40.0113 23.2015 39.8879 23.078 39.7645C21.7776 39.0824 20.2129 37.6984 19.5013 36.8029C18.2754 35.2569 17.1627 33.4885 16.0898 31.7805C13.863 28.2379 11.5598 24.575 8.01521 22.4363L7.89693 22.3669C7.50416 22.138 6.91147 21.7941 7.01111 21.2304C7.24896 19.8978 8.42405 19.1322 10.2388 19.1322C11.7269 19.1322 13.4561 19.6606 14.3471 20.387C15.2156 21.0966 15.9304 22.1078 16.6234 23.0862C17.2598 23.9855 17.9161 24.9151 18.6952 25.6125C18.7042 25.4692 18.7145 25.3271 18.728 25.1895C18.6431 24.0331 18.3892 20.9019 17.8621 17.3374C17.6422 15.8608 17.2559 14.1695 16.8818 12.5335C16.0185 8.762 15.204 5.19944 16.3077 3.99863C16.6941 3.58014 17.1717 3.35901 17.6917 3.35901C18.9022 3.35901 20.4379 4.6151 21.1225 8.14103C21.8676 11.9749 23.303 17.8741 24.1059 21.1018C24.1548 21.1153 24.2075 21.1089 24.2698 21.0844C24.3129 21.0696 24.3515 21.0549 24.3868 21.0426C24.5868 20.9732 24.6407 20.9526 24.6999 20.6531C24.716 17.4576 24.7577 9.54304 24.7455 5.71242C24.7391 3.27737 25.3794 2.1222 25.9181 1.58415C26.5422 0.957395 27.394 0.8269 28.2072 1.23188C29.4215 1.83486 29.586 5.82105 29.6857 11.3854C29.7075 12.5573 29.7262 13.6642 29.7686 14.6214C29.8599 16.8006 29.9698 18.9104 30.0476 20.34C30.09 20.333 30.1376 20.3143 30.1864 20.2822C30.7933 16.6785 31.8752 10.2052 32.4119 6.8348C32.8381 4.15805 33.9425 2.55933 35.3632 2.55933C35.7649 2.55933 36.1744 2.70011 36.5453 2.9656C37.6478 3.75499 37.1715 7.71419 36.3795 13.2213C36.2117 14.3829 36.0542 15.4815 35.9404 16.4335C35.7579 17.9789 35.5888 19.6676 35.4397 21.456C35.4956 21.4695 35.5682 21.4862 35.6544 21.5113C36.4811 18.3248 37.5732 14.0962 38.1743 11.692C38.7547 9.38362 39.8443 8.00539 41.0882 8.00539C41.5099 8.00539 41.9252 8.16996 42.2871 8.48109C43.2378 9.29748 42.4819 12.8838 41.3139 17.8606C41.0664 18.9091 40.8349 19.8997 40.653 20.7598C40.3213 22.3495 39.9967 24.089 39.6849 25.9294C39.8964 28.3934 39.2915 31.8821 38.9656 33.7598L38.9077 34.0966C38.3858 37.1327 36.9619 39.4276 34.7872 40.7396C35.0283 45.2709 35.3342 46.8041 35.3381 46.9224C35.3381 47.5523 34.415 48.1078 34.3102 48.1688L34.2813 48.1823C32.1439 48.8952 29.543 49 28.1834 49Z" fill="#E0734C"/>
<defs>
<linearGradient id="paint0_linear_219_1756" x1="23.156" y1="45.1957" x2="30.7062" y2="45.1957" gradientUnits="userSpaceOnUse">
<stop stop-color="#FDE4CE"/>
<stop offset="1" stop-color="#FDE2CD"/>
</linearGradient>
<linearGradient id="paint1_linear_219_1756" x1="23.1561" y1="45.011" x2="30.7062" y2="45.011" gradientUnits="userSpaceOnUse">
<stop stop-color="#FFF0E5"/>
<stop offset="1" stop-color="#FFF0E4"/>
</linearGradient>
</defs>
</svg>
