<svg width="150" height="150" viewBox="0 0 150 150" fill="none" xmlns="http://www.w3.org/2000/svg">
<path d="M0 10C0 4.47715 4.47715 0 10 0H140C145.523 0 150 4.47715 150 10V150H0V10Z" fill="#FCE06C"/>
<path opacity="0.2" d="M115.667 139H29.0047C22.927 139 18 134.073 18 127.995V24.4491C18 18.3714 22.927 13.4443 29.0047 13.4443H115.667C121.745 13.4443 126.672 18.3714 126.672 24.4491V127.995C126.672 134.073 121.745 139 115.667 139Z" fill="#241228" stroke="#241228" stroke-width="6" stroke-miterlimit="10" stroke-linecap="round" stroke-linejoin="round"/>
<path d="M120.138 133.007H33.4754C27.3977 133.007 22.4707 128.08 22.4707 122.002V28.9149C22.4707 22.8372 27.3977 17.9102 33.4754 17.9102H120.138C126.216 17.9102 131.143 22.8372 131.143 28.9149V122.002C131.143 128.08 126.216 133.007 120.138 133.007Z" fill="#EB6331"/>
<path d="M120.138 127.848H33.4754C27.3977 127.848 22.4707 122.92 22.4707 116.843V122.001C22.4707 128.079 27.3977 133.006 33.4754 133.006H120.138C126.216 133.006 131.143 128.079 131.143 122.001V116.843C131.143 122.92 126.216 127.848 120.138 127.848Z" fill="#DD562C"/>
<path d="M120.138 133.007H33.4754C27.3977 133.007 22.4707 128.08 22.4707 122.002V28.9149C22.4707 22.8372 27.3977 17.9102 33.4754 17.9102H120.138C126.216 17.9102 131.143 22.8372 131.143 28.9149V122.002C131.143 128.08 126.216 133.007 120.138 133.007Z" stroke="#511C64" stroke-width="3" stroke-miterlimit="10" stroke-linecap="round" stroke-linejoin="round"/>
<path d="M120.138 125.097H33.4754C27.3977 125.097 22.4707 120.17 22.4707 114.092V21.0047C22.4707 14.927 27.3977 10 33.4754 10H120.138C126.216 10 131.143 14.927 131.143 21.0047V114.092C131.143 120.17 126.216 125.097 120.138 125.097Z" fill="#FDA22F"/>
<path d="M120.138 125.097H33.4754C27.3977 125.097 22.4707 120.17 22.4707 114.092V21.0047C22.4707 14.927 27.3977 10 33.4754 10H120.138C126.216 10 131.143 14.927 131.143 21.0047V114.092C131.143 120.17 126.216 125.097 120.138 125.097Z" fill="#FDA22F"/>
<path d="M28.8902 114.092V21.0047C28.8902 14.927 33.8173 10 39.895 10H33.4754C27.3977 10 22.4707 14.927 22.4707 21.0047V114.092C22.4707 120.17 27.3977 125.097 33.4754 125.097H39.895C33.8173 125.097 28.8902 120.17 28.8902 114.092Z" fill="#FC9435"/>
<path d="M120.138 10H113.718C119.796 10 124.723 14.927 124.723 21.0047V114.092C124.723 120.17 119.796 125.097 113.718 125.097H120.138C126.216 125.097 131.143 120.17 131.143 114.092V21.0047C131.143 14.927 126.216 10 120.138 10Z" fill="#FFB331"/>
<path d="M120.138 125.097H33.4754C27.3977 125.097 22.4707 120.17 22.4707 114.092V21.0047C22.4707 14.927 27.3977 10 33.4754 10H120.138C126.216 10 131.143 14.927 131.143 21.0047V114.092C131.143 120.17 126.216 125.097 120.138 125.097Z" stroke="#511C64" stroke-width="3" stroke-miterlimit="10" stroke-linecap="round" stroke-linejoin="round"/>
<path d="M115.323 46.3441H38.2902C36.7709 46.3441 35.5391 45.1122 35.5391 43.5929V25.7102C35.5391 24.1908 36.7709 22.959 38.2902 22.959H115.323C116.843 22.959 118.075 24.1908 118.075 25.7102V43.5929C118.075 45.1122 116.843 46.3441 115.323 46.3441Z" fill="#A5F3FF"/>
<path d="M105.449 28.6174L104.789 27.9572L105.449 27.2969H110.497L111.149 27.8406L110.484 28.6174H105.449Z" fill="#511C64"/>
<path opacity="0.2" d="M103.941 33.8457V28.8048L104.602 28.1445L105.262 28.8048V33.8457L104.602 34.506L103.941 33.8457Z" fill="#511C64"/>
<path d="M110.676 33.8454V28.7986L111.337 28.0283L111.997 28.7986V33.8454L111.337 34.5056L110.676 33.8454Z" fill="#511C64"/>
<path opacity="0.2" d="M105.449 35.3528L104.789 34.6925L105.449 34.0322H110.49L111.15 34.6925L110.49 35.3528H105.449Z" fill="#511C64"/>
<path opacity="0.2" d="M103.941 40.6963V35.6554L104.602 34.9951L105.262 35.6554V40.6963L104.602 41.3566L103.941 40.6963Z" fill="#511C64"/>
<path d="M110.676 40.6959V35.6492L111.337 34.8789L111.997 35.6492V40.6959L111.337 41.3562L110.676 40.6959Z" fill="#511C64"/>
<path opacity="0.2" d="M105.449 42.2034L104.789 41.5431L105.449 40.8828H110.49L111.15 41.5431L110.49 42.2034H105.449Z" fill="#511C64"/>
<path d="M93.5446 28.6174L92.8843 27.9572L93.5446 27.2969H98.5923L99.245 27.8406L98.5792 28.6174H93.5446Z" fill="#511C64"/>
<path opacity="0.2" d="M92.0371 33.8457V28.8048L92.6974 28.1445L93.3577 28.8048V33.8457L92.6974 34.506L92.0371 33.8457Z" fill="#511C64"/>
<path d="M98.772 33.8454V28.7986L99.4323 28.0283L100.093 28.7986V33.8454L99.4323 34.5056L98.772 33.8454Z" fill="#511C64"/>
<path d="M93.5446 35.3528L92.8843 34.6925L93.5446 34.0322H98.5854L99.2457 34.6925L98.5854 35.3528H93.5446Z" fill="#511C64"/>
<path opacity="0.2" d="M92.0371 40.6963V35.6554L92.6974 34.9951L93.3577 35.6554V40.6963L92.6974 41.3566L92.0371 40.6963Z" fill="#511C64"/>
<path d="M98.772 40.6959V35.6492L99.4323 34.8789L100.093 35.6492V40.6959L99.4323 41.3562L98.772 40.6959Z" fill="#511C64"/>
<path d="M93.5446 42.2034L92.8843 41.5431L93.5446 40.8828H98.5854L99.2457 41.5431L98.5854 42.2034H93.5446Z" fill="#511C64"/>
<g opacity="0.2">
<path opacity="0.2" d="M69.6642 28.6174L69.0039 27.9572L69.6642 27.2969H74.7119L75.3646 27.8406L74.6989 28.6174H69.6642Z" fill="#511C64"/>
<path opacity="0.2" d="M68.1567 33.8447V28.8038L68.817 28.1436L69.4773 28.8038V33.8447L68.817 34.505L68.1567 33.8447Z" fill="#511C64"/>
<path opacity="0.2" d="M74.8918 33.8454V28.7986L75.5521 28.0283L76.2124 28.7986V33.8454L75.5521 34.5056L74.8918 33.8454Z" fill="#511C64"/>
<path opacity="0.2" d="M69.6642 35.3518L69.0039 34.6915L69.6642 34.0312H74.7051L75.3653 34.6915L74.7051 35.3518H69.6642Z" fill="#511C64"/>
<path opacity="0.2" d="M68.1567 40.6953V35.6544L68.817 34.9941L69.4773 35.6544V40.6953L68.817 41.3556L68.1567 40.6953Z" fill="#511C64"/>
<path opacity="0.2" d="M74.8918 40.6959V35.6492L75.5521 34.8789L76.2124 35.6492V40.6959L75.5521 41.3562L74.8918 40.6959Z" fill="#511C64"/>
<path opacity="0.2" d="M69.6642 42.2034L69.0039 41.5431L69.6642 40.8828H74.7051L75.3653 41.5431L74.7051 42.2034H69.6642Z" fill="#511C64"/>
</g>
<g opacity="0.2">
<path opacity="0.2" d="M81.5922 28.6174L80.9319 27.9572L81.5922 27.2969H86.6403L87.293 27.8406L86.6272 28.6174H81.5922Z" fill="#511C64"/>
<path opacity="0.2" d="M80.085 33.8447V28.8038L80.7453 28.1436L81.4055 28.8038V33.8447L80.7453 34.505L80.085 33.8447Z" fill="#511C64"/>
<path opacity="0.2" d="M86.8198 33.8454V28.7986L87.4801 28.0283L88.1404 28.7986V33.8454L87.4801 34.5056L86.8198 33.8454Z" fill="#511C64"/>
<path opacity="0.2" d="M81.5922 35.3518L80.9319 34.6915L81.5922 34.0312H86.633L87.2933 34.6915L86.633 35.3518H81.5922Z" fill="#511C64"/>
<path opacity="0.2" d="M80.085 40.6953V35.6544L80.7453 34.9941L81.4055 35.6544V40.6953L80.7453 41.3556L80.085 40.6953Z" fill="#511C64"/>
<path opacity="0.2" d="M86.8198 40.6959V35.6492L87.4801 34.8789L88.1404 35.6492V40.6959L87.4801 41.3562L86.8198 40.6959Z" fill="#511C64"/>
<path opacity="0.2" d="M81.5922 42.2034L80.9319 41.5431L81.5922 40.8828H86.633L87.2933 41.5431L86.633 42.2034H81.5922Z" fill="#511C64"/>
</g>
<g opacity="0.2">
<path opacity="0.2" d="M45.8073 28.6174L45.147 27.9572L45.8073 27.2969H50.855L51.5077 27.8406L50.8423 28.6174H45.8073Z" fill="#511C64"/>
<path opacity="0.2" d="M44.3003 33.8447V28.8038L44.9606 28.1436L45.6209 28.8038V33.8447L44.9606 34.505L44.3003 33.8447Z" fill="#511C64"/>
<path opacity="0.2" d="M51.0349 33.8454V28.7986L51.6952 28.0283L52.3555 28.7986V33.8454L51.6952 34.5056L51.0349 33.8454Z" fill="#511C64"/>
<path opacity="0.2" d="M45.8073 35.3518L45.147 34.6915L45.8073 34.0312H50.8481L51.5084 34.6915L50.8481 35.3518H45.8073Z" fill="#511C64"/>
<path opacity="0.2" d="M44.3003 40.6953V35.6544L44.9606 34.9941L45.6209 35.6544V40.6953L44.9606 41.3556L44.3003 40.6953Z" fill="#511C64"/>
<path opacity="0.2" d="M51.0349 40.6959V35.6492L51.6952 34.8789L52.3555 35.6492V40.6959L51.6952 41.3562L51.0349 40.6959Z" fill="#511C64"/>
<path opacity="0.2" d="M45.8073 42.2034L45.147 41.5431L45.8073 40.8828H50.8481L51.5084 41.5431L50.8481 42.2034H45.8073Z" fill="#511C64"/>
</g>
<g opacity="0.2">
<path opacity="0.2" d="M57.736 28.6174L57.0757 27.9572L57.736 27.2969H62.7837L63.4364 27.8406L62.7706 28.6174H57.736Z" fill="#511C64"/>
<path opacity="0.2" d="M56.2285 33.8447V28.8038L56.8888 28.1436L57.5491 28.8038V33.8447L56.8888 34.505L56.2285 33.8447Z" fill="#511C64"/>
<path opacity="0.2" d="M62.9636 33.8454V28.7986L63.6239 28.0283L64.2842 28.7986V33.8454L63.6239 34.5056L62.9636 33.8454Z" fill="#511C64"/>
<path opacity="0.2" d="M57.736 35.3528L57.0757 34.6925L57.736 34.0322H62.7768L63.4371 34.6925L62.7768 35.3528H57.736Z" fill="#511C64"/>
<path opacity="0.2" d="M56.2285 40.6953V35.6544L56.8888 34.9941L57.5491 35.6544V40.6953L56.8888 41.3556L56.2285 40.6953Z" fill="#511C64"/>
<path opacity="0.2" d="M62.9636 40.6959V35.6492L63.6239 34.8789L64.2842 35.6492V40.6959L63.6239 41.3562L62.9636 40.6959Z" fill="#511C64"/>
<path opacity="0.2" d="M57.736 42.2034L57.0757 41.5431L57.736 40.8828H62.7768L63.4371 41.5431L62.7768 42.2034H57.736Z" fill="#511C64"/>
</g>
<path opacity="0.43" d="M115.323 30.5247H38.2902C36.7709 30.5247 35.5391 29.2929 35.5391 27.7736V25.7102C35.5391 24.1908 36.7709 22.959 38.2902 22.959H115.323C116.843 22.959 118.075 24.1908 118.075 25.7102V27.7736C118.075 29.2929 116.843 30.5247 115.323 30.5247Z" fill="#D2FCFB"/>
<path d="M115.323 46.3441H38.2902C36.7709 46.3441 35.5391 45.1122 35.5391 43.5929V25.7102C35.5391 24.1908 36.7709 22.959 38.2902 22.959H115.323C116.843 22.959 118.075 24.1908 118.075 25.7102V43.5929C118.075 45.1122 116.843 46.3441 115.323 46.3441Z" stroke="#511C64" stroke-width="3" stroke-miterlimit="10" stroke-linecap="round" stroke-linejoin="round"/>
<path d="M52.3901 81.0232H35.883C34.3637 81.0232 33.1318 79.7913 33.1318 78.272V61.7649C33.1318 60.2455 34.3637 59.0137 35.883 59.0137H52.3901C53.9095 59.0137 55.1413 60.2455 55.1413 61.7649V78.272C55.1413 79.7913 53.9095 81.0232 52.3901 81.0232ZM82.864 81.0232H66.3569C64.8375 81.0232 63.6057 79.7913 63.6057 78.272V61.7649C63.6057 60.2455 64.8375 59.0137 66.3569 59.0137H82.864C84.3833 59.0137 85.6152 60.2455 85.6152 61.7649V78.272C85.6152 79.7913 84.3837 81.0232 82.864 81.0232ZM52.3901 111.455H35.883C34.3637 111.455 33.1318 110.223 33.1318 108.704V92.1964C33.1318 90.6771 34.3637 89.4452 35.883 89.4452H52.3901C53.9095 89.4452 55.1413 90.6771 55.1413 92.1964V108.704C55.1413 110.223 53.9095 111.455 52.3901 111.455ZM82.864 111.455H66.3569C64.8375 111.455 63.6057 110.223 63.6057 108.704V92.1964C63.6057 90.6771 64.8375 89.4452 66.3569 89.4452H82.864C84.3833 89.4452 85.6152 90.6771 85.6152 92.1964V108.704C85.6152 110.223 84.3837 111.455 82.864 111.455ZM113.127 111.455H96.6199C95.1006 111.455 93.8687 110.223 93.8687 108.704V61.7649C93.8687 60.2455 95.1006 59.0137 96.6199 59.0137H113.127C114.646 59.0137 115.878 60.2455 115.878 61.7649V108.704C115.878 110.223 114.647 111.455 113.127 111.455Z" fill="#FC9435" stroke="#FC9435" stroke-width="6" stroke-miterlimit="10"/>
<path d="M85.0601 78.9607H68.5529C67.0336 78.9607 65.8018 77.7288 65.8018 76.2095V59.7024C65.8018 58.183 67.0336 56.9512 68.5529 56.9512H85.0601C86.5794 56.9512 87.8113 58.183 87.8113 59.7024V76.2095C87.8113 77.7288 86.5794 78.9607 85.0601 78.9607Z" fill="#FF82A0"/>
<path d="M115.323 109.224H98.8161C97.2968 109.224 96.0649 107.992 96.0649 106.473V59.7024C96.0649 58.183 97.2968 56.9512 98.8161 56.9512H115.323C116.843 56.9512 118.074 58.183 118.074 59.7024V106.473C118.074 107.992 116.843 109.224 115.323 109.224Z" fill="#B078FD"/>
<path d="M100.149 106.816C99.4128 106.816 98.8161 106.22 98.8161 105.484V56.9512C97.2968 56.9512 96.0649 58.183 96.0649 59.7024V106.473C96.0649 107.992 97.2968 109.224 98.8161 109.224H115.323C116.726 109.224 117.881 108.173 118.051 106.816H100.149Z" fill="#A270F2"/>
<path d="M115.323 109.224H98.8161C97.2968 109.224 96.0649 107.992 96.0649 106.473V59.7024C96.0649 58.183 97.2968 56.9512 98.8161 56.9512H115.323C116.843 56.9512 118.074 58.183 118.074 59.7024V106.473C118.074 107.992 116.843 109.224 115.323 109.224Z" stroke="#511C64" stroke-width="3" stroke-miterlimit="10" stroke-linecap="round" stroke-linejoin="round"/>
<path d="M112.022 78.6709H102.118V81.147H112.022V78.6709Z" fill="#511C64"/>
<path d="M112.022 82.3848H102.118V84.8608H112.022V82.3848Z" fill="#511C64"/>
<path d="M110.993 59.9287H112.655C113.921 59.9287 114.948 60.9552 114.948 62.2215V68.988" stroke="white" stroke-miterlimit="10" stroke-linecap="round" stroke-linejoin="round"/>
<path d="M69.8855 76.5534C69.1496 76.5534 68.5529 75.9567 68.5529 75.2208V56.9512C67.0336 56.9512 65.8018 58.183 65.8018 59.7024V76.2095C65.8018 77.7288 67.0336 78.9607 68.5529 78.9607H85.0601C86.4628 78.9607 87.618 77.91 87.7875 76.5534H69.8855Z" fill="#F27095"/>
<path d="M85.0601 78.9607H68.5529C67.0336 78.9607 65.8018 77.7288 65.8018 76.2095V59.7024C65.8018 58.183 67.0336 56.9512 68.5529 56.9512H85.0601C86.5794 56.9512 87.8113 58.183 87.8113 59.7024V76.2095C87.8113 77.7288 86.5794 78.9607 85.0601 78.9607Z" stroke="#511C64" stroke-width="3" stroke-miterlimit="10" stroke-linecap="round" stroke-linejoin="round"/>
<path d="M81.1181 66.875H72.4714V69.0367H81.1181V66.875Z" fill="#511C64"/>
<path d="M82.3674 59.9287H83.1082C83.9786 59.9287 84.6843 60.6344 84.6843 61.5048V63.8835" stroke="white" stroke-miterlimit="10" stroke-linecap="round" stroke-linejoin="round"/>
<path d="M54.7974 78.9607H38.2902C36.7709 78.9607 35.5391 77.7288 35.5391 76.2095V59.7024C35.5391 58.183 36.7709 56.9512 38.2902 56.9512H54.7974C56.3167 56.9512 57.5485 58.183 57.5485 59.7024V76.2095C57.5485 77.7288 56.3167 78.9607 54.7974 78.9607Z" fill="#FF82A0"/>
<path d="M39.6229 76.5534C38.8869 76.5534 38.2902 75.9567 38.2902 75.2208V56.9512C36.7709 56.9512 35.5391 58.183 35.5391 59.7024V76.2095C35.5391 77.7288 36.7709 78.9607 38.2902 78.9607H54.7974C56.2001 78.9607 57.3553 77.91 57.5248 76.5534H39.6229Z" fill="#F27095"/>
<path d="M54.7974 78.9607H38.2902C36.7709 78.9607 35.5391 77.7288 35.5391 76.2095V59.7024C35.5391 58.183 36.7709 56.9512 38.2902 56.9512H54.7974C56.3167 56.9512 57.5485 58.183 57.5485 59.7024V76.2095C57.5485 77.7288 56.3167 78.9607 54.7974 78.9607Z" stroke="#511C64" stroke-width="3" stroke-miterlimit="10" stroke-linecap="round" stroke-linejoin="round"/>
<path d="M50.3651 66.875H41.7185V69.0367H50.3651V66.875Z" fill="#511C64"/>
<path d="M47.1226 72.2794V63.6328H44.9608V72.2794H47.1226Z" fill="#511C64"/>
<path d="M51.9336 59.9287H52.6743C53.5448 59.9287 54.2504 60.6344 54.2504 61.5048V63.8835" stroke="white" stroke-miterlimit="10" stroke-linecap="round" stroke-linejoin="round"/>
<path d="M85.0601 109.961H68.5529C67.0336 109.961 65.8018 108.729 65.8018 107.209V90.7024C65.8018 89.183 67.0336 87.9512 68.5529 87.9512H85.0601C86.5794 87.9512 87.8113 89.183 87.8113 90.7024V107.209C87.8113 108.729 86.5794 109.961 85.0601 109.961Z" fill="#FF82A0"/>
<path d="M69.8855 107.553C69.1496 107.553 68.5529 106.957 68.5529 106.221V87.9512C67.0336 87.9512 65.8018 89.183 65.8018 90.7024V107.209C65.8018 108.729 67.0336 109.961 68.5529 109.961H85.0601C86.4628 109.961 87.618 108.91 87.7875 107.553H69.8855Z" fill="#F27095"/>
<path d="M85.0601 109.961H68.5529C67.0336 109.961 65.8018 108.729 65.8018 107.209V90.7024C65.8018 89.183 67.0336 87.9512 68.5529 87.9512H85.0601C86.5794 87.9512 87.8113 89.183 87.8113 90.7024V107.209C87.8113 108.729 86.5794 109.961 85.0601 109.961Z" stroke="#511C64" stroke-width="3" stroke-miterlimit="10" stroke-linecap="round" stroke-linejoin="round"/>
<path d="M81.1181 97.875H72.4714V100.037H81.1181V97.875Z" fill="#511C64"/>
<path d="M82.3674 90.9287H83.1082C83.9786 90.9287 84.6843 91.6344 84.6843 92.5048V94.8835" stroke="white" stroke-miterlimit="10" stroke-linecap="round" stroke-linejoin="round"/>
<path d="M54.7974 109.961H38.2902C36.7709 109.961 35.5391 108.729 35.5391 107.209V90.7024C35.5391 89.183 36.7709 87.9512 38.2902 87.9512H54.7974C56.3167 87.9512 57.5485 89.183 57.5485 90.7024V107.209C57.5485 108.729 56.3167 109.961 54.7974 109.961Z" fill="#FF82A0"/>
<path d="M39.6229 107.553C38.8869 107.553 38.2902 106.957 38.2902 106.221V87.9512C36.7709 87.9512 35.5391 89.183 35.5391 90.7024V107.209C35.5391 108.729 36.7709 109.961 38.2902 109.961H54.7974C56.2001 109.961 57.3553 108.91 57.5248 107.553H39.6229Z" fill="#F27095"/>
<path d="M54.7974 109.961H38.2902C36.7709 109.961 35.5391 108.729 35.5391 107.209V90.7024C35.5391 89.183 36.7709 87.9512 38.2902 87.9512H54.7974C56.3167 87.9512 57.5485 89.183 57.5485 90.7024V107.209C57.5485 108.729 56.3167 109.961 54.7974 109.961Z" stroke="#511C64" stroke-width="3" stroke-miterlimit="10" stroke-linecap="round" stroke-linejoin="round"/>
<path d="M50.3651 97.875H41.7185V100.037H50.3651V97.875Z" fill="#511C64"/>
<path d="M47.1226 103.279V94.6328H44.9608V103.279H47.1226Z" fill="#511C64"/>
<path d="M51.9336 90.9287H52.6743C53.5448 90.9287 54.2504 91.6344 54.2504 92.5048V94.8835" stroke="white" stroke-miterlimit="10" stroke-linecap="round" stroke-linejoin="round"/>
</svg>
