<svg width="24" height="24" viewBox="0 0 24 24" fill="none" xmlns="http://www.w3.org/2000/svg">
<path d="M6.30622 12.5596C6.22316 12.3271 6.09501 12.1133 5.92913 11.9305C5.76325 11.7477 5.56289 11.5994 5.33957 11.4942C5.11624 11.389 4.87434 11.3289 4.62774 11.3175C4.38115 11.306 4.13471 11.3433 3.90257 11.4273C3.67044 11.5113 3.45717 11.6403 3.27502 11.8069C3.09286 11.9735 2.9454 12.1745 2.8411 12.3982C2.7368 12.622 2.67771 12.8641 2.66722 13.1108C2.65673 13.3574 2.69505 13.6037 2.77998 13.8355L4.56599 18.7729C4.64974 19.0045 4.77829 19.2173 4.94431 19.3991C5.11032 19.581 5.31054 19.7284 5.53354 19.8329C5.75653 19.9373 5.99792 19.9969 6.24391 20.008C6.48991 20.0192 6.7357 19.9817 6.96723 19.8979H6.9676C7.43469 19.7281 7.81539 19.38 8.02627 18.9299C8.23715 18.4799 8.26101 17.9646 8.0926 17.497L6.30622 12.5596Z" fill="#007CC2"/>
<path d="M1.95356 12.7538C1.98433 12.5808 2.03206 12.4112 2.09606 12.2476C2.07356 11.9776 2.06231 11.7076 2.06231 11.4376C2.05982 9.48337 2.63803 7.57251 3.72356 5.94755C3.82055 6.18853 3.97814 6.40037 4.18106 6.56255C3.31323 7.96463 2.84032 9.57512 2.81231 11.2238C3.04049 11.0218 3.30352 10.8629 3.58856 10.7551C3.68682 9.37482 4.12761 8.04085 4.87106 6.8738C5.1212 6.91707 5.37825 6.89568 5.61781 6.81167C5.85736 6.72766 6.07147 6.58382 6.23981 6.3938C6.95947 5.5749 7.84547 4.91886 8.83871 4.46944C9.83196 4.02002 10.9096 3.78756 11.9998 3.78756C13.09 3.78756 14.1677 4.02002 15.1609 4.46944C16.1541 4.91886 17.0401 5.5749 17.7598 6.3938C17.9003 6.55265 18.0729 6.6799 18.2661 6.76717C18.4594 6.85443 18.669 6.89972 18.8811 6.90005C18.964 6.89814 19.0467 6.89062 19.1286 6.87755C19.872 8.04324 20.3128 9.37599 20.4111 10.7551C20.6961 10.8629 20.9591 11.0218 21.1873 11.2238C21.1593 9.57512 20.6864 7.96463 19.8186 6.56255C20.0215 6.40037 20.1791 6.18853 20.2761 5.94755C21.3616 7.57251 21.9398 9.48337 21.9373 11.4376C21.9373 11.7076 21.9261 11.9776 21.9036 12.2476C21.9676 12.4112 22.0153 12.5808 22.0461 12.7538C22.0461 12.7538 22.5373 12.9338 22.5786 12.9563C22.7874 11.5034 22.6948 10.0231 22.3064 8.6076C21.918 7.19211 21.2422 5.87179 20.3211 4.72894C19.4 3.5861 18.2534 2.64524 16.9527 1.96501C15.6521 1.28478 14.2252 0.879757 12.7611 0.775198C11.297 0.670639 9.82712 0.868782 8.44297 1.35728C7.05883 1.84577 5.79015 2.61414 4.71601 3.61449C3.64187 4.61484 2.78531 5.82573 2.19971 7.17167C1.61411 8.51761 1.31203 9.96974 1.31231 11.4376C1.31267 11.9457 1.34901 12.4533 1.42106 12.9563C1.46231 12.9338 1.95356 12.7538 1.95356 12.7538ZM2.07476 14.0904C2.0123 13.9167 1.96818 13.737 1.94313 13.5541L1.80633 13.6037C1.40742 13.7484 1.08223 14.0456 0.902145 14.4298C0.722059 14.8141 0.701785 15.2541 0.845771 15.6533L1.91655 18.6127C1.98772 18.8106 2.09725 18.9924 2.23886 19.1479C2.38047 19.3033 2.55137 19.4292 2.74177 19.5185C2.93216 19.6077 3.1383 19.6585 3.34837 19.6679C3.55843 19.6773 3.76828 19.6451 3.96588 19.5733L4.1094 19.5213C4.00918 19.3662 3.92583 19.2008 3.86077 19.028L2.07476 14.0904Z" fill="#007CC2"/>
<path d="M20.094 11.434C19.6264 11.2659 19.1112 11.2899 18.6613 11.5007C18.2113 11.7116 17.8632 12.0921 17.6931 12.559L15.9067 17.4963C15.7383 17.9639 15.7622 18.4792 15.9731 18.9292C16.1839 19.3793 16.5646 19.7273 17.0317 19.8972H17.0321C17.2636 19.981 17.5094 20.0185 17.7554 20.0073C18.0014 19.9961 18.2428 19.9366 18.4658 19.8322C18.6888 19.7277 18.889 19.5803 19.055 19.3984C19.221 19.2165 19.3496 19.0037 19.4333 18.7722L21.2194 13.8349C21.3032 13.6034 21.3405 13.3576 21.3293 13.1116C21.3181 12.8657 21.2586 12.6243 21.1541 12.4013C21.0496 12.1784 20.9022 11.9782 20.7203 11.8122C20.5384 11.6463 20.3256 11.5177 20.094 11.434Z" fill="#007CC2"/>
<path d="M22.1934 13.6032L22.0566 13.5537C22.0315 13.7366 21.9874 13.9163 21.925 14.09L20.139 19.0276C19.0111 21.5755 14.5241 21.6416 13.4374 21.5831C13.3284 21.2929 13.131 21.0443 12.8731 20.8723C12.6151 20.7003 12.3097 20.6137 11.9999 20.6246C11.8128 20.5995 11.6225 20.6147 11.4418 20.6692C11.2611 20.7237 11.0941 20.8162 10.952 20.9405C10.81 21.0648 10.6961 21.218 10.6181 21.3899C10.5401 21.5618 10.4998 21.7483 10.4998 21.9371C10.4998 22.1259 10.5401 22.3124 10.6181 22.4843C10.6961 22.6562 10.81 22.8094 10.952 22.9337C11.0941 23.058 11.2611 23.1505 11.4418 23.205C11.6225 23.2595 11.8128 23.2747 11.9999 23.2496C12.3022 23.2595 12.6003 23.177 12.8545 23.0131C13.1087 22.8493 13.3069 22.6119 13.4227 22.3325C13.5727 22.3397 13.7649 22.3458 13.9939 22.3458C15.6256 22.3458 19.2724 22.0885 20.6685 19.6593C20.9818 19.6459 21.284 19.539 21.5361 19.3524C21.7882 19.1658 21.9787 18.908 22.0832 18.6123L23.154 15.6529C23.2979 15.2537 23.2777 14.8137 23.0976 14.4294C22.9175 14.0452 22.5923 13.748 22.1934 13.6032ZM11.9999 22.4996C11.5934 22.4996 11.2499 22.2422 11.2499 21.9371C11.2499 21.632 11.5934 21.3746 11.9999 21.3746C12.4064 21.3746 12.7499 21.632 12.7499 21.9371C12.7499 22.2422 12.4064 22.4996 11.9999 22.4996Z" fill="#007CC2"/>
</svg>
