<svg width="97" height="73" viewBox="0 0 97 73" fill="none" xmlns="http://www.w3.org/2000/svg">
<path d="M3.09299 70.2658C14.6071 72.594 27.7725 68.764 37.3865 62.4164C46.5883 56.3408 56.4914 45.1459 53.2654 33.2335C52.0901 28.8956 48.324 25.2842 43.6548 27.3995C39.3182 29.3634 38.0619 34.3773 40.1901 38.4507C45.9369 49.4518 62.4782 44.2346 70.347 38.8555C75.3215 35.4547 79.4774 30.8781 82.3625 25.5974C85.0391 20.6981 87.2996 14.4254 86.4704 8.78714C86.3515 7.97751 84.9825 7.99517 84.8464 8.78714C84.1188 13.0219 83.7607 17.0977 82.1084 21.1297C80.3958 25.3105 77.8294 29.1529 74.6936 32.4062C68.4728 38.8579 58.2404 44.4356 48.9725 42.4836C44.0608 41.4491 37.9655 35.3024 42.6266 30.4595C44.5171 28.4955 47.5455 27.9766 49.5468 30.0671C51.374 31.9761 51.918 35.026 51.9425 37.5595C52.0412 47.8641 43.4458 56.6406 35.2842 61.8067C30.6682 64.7278 25.5738 66.8669 20.2575 68.141C14.5688 69.5044 9.02381 69.4844 3.22866 69.2676C2.6616 69.2466 2.52354 70.1503 3.09299 70.2658Z" fill="#FCE06C"/>
<path d="M0.339704 70.0121C12.1478 75.509 26.1668 73.0761 36.4995 65.5305C41.4711 61.8994 45.6488 57.2917 49.0355 52.1705C52.493 46.9428 55.9773 40.6291 56.3587 34.2534C56.6243 29.8071 54.2938 22.598 48.5082 23.5598C43.4179 24.4056 38.909 30.4095 38.9487 35.4143C38.9932 41.0191 44.1941 44.8368 49.3494 45.5241C55.5011 46.3442 62.0094 43.7886 67.271 40.7943C78.7871 34.2424 87.1899 22.4968 89.3582 9.43134C89.5645 8.18647 87.6618 7.64326 87.4402 8.90437C85.7792 18.3708 80.9808 27.0057 73.8792 33.4964C70.2595 36.8048 66.0497 39.5174 61.5021 41.3733C56.2936 43.4993 49.706 45.1824 44.6406 41.8306C39.0507 38.1317 40.3758 31.3895 44.9449 27.4639C47.6128 25.1718 50.9239 24.3154 53.139 27.7279C54.9379 30.4988 54.7828 34.1966 54.0339 37.2792C51.6359 47.1571 44.5147 56.9834 36.5924 63.2159C26.6588 71.0307 12.8393 74.1835 1.00106 68.8842C0.241612 68.5443 -0.427882 69.6546 0.339704 70.0121Z" fill="#FCE06C"/>
<path d="M78.3895 17.581C80.4992 15.8872 82.377 13.8588 84.3243 11.9823C85.2456 11.094 86.1669 10.2062 87.0877 9.31844C87.5143 8.90835 89.4885 6.49584 90.0668 6.63303C90.3648 6.70456 90.9656 9.88532 91.0791 10.2969C91.4167 11.5178 91.7543 12.7388 92.0914 13.9598C92.75 16.3414 93.0846 19.3717 94.5211 21.4129C95.0344 22.1424 96.124 21.8739 96.1841 20.9616C96.2962 19.2728 95.6249 17.6824 95.1645 16.0685C94.6439 14.2405 94.1224 12.4135 93.6018 10.5855C93.1194 8.89365 92.8126 4.73692 90.6799 4.15388C88.6435 3.59778 86.5411 7.05095 85.3478 8.25476C82.6666 10.9583 79.7276 13.558 77.3023 16.4923C76.6658 17.263 77.6184 18.1998 78.3895 17.581Z" fill="#FCE06C"/>
<path d="M79.418 18.0488C81.1879 15.844 82.4247 13.0854 83.9438 10.6766C85.7054 7.88457 87.5628 5.12314 89.6917 2.6259C89.0791 2.45592 88.4665 2.28643 87.8543 2.11694C88.7112 5.11197 89.4502 8.14488 90.0281 11.2128C90.5908 14.1966 90.5135 17.5962 91.5014 20.4358C91.7883 21.2624 93.1728 21.5057 93.3407 20.4358C93.7859 17.5923 92.9446 14.2447 92.431 11.442C91.8138 8.07202 90.9823 4.76763 89.974 1.50306C89.6695 0.5167 88.5072 0.413262 87.9649 1.2277C86.1654 3.93183 84.2941 6.57136 82.6131 9.36193C81.1009 11.8713 79.2713 14.608 78.4773 17.4743C78.3274 18.0148 79.0469 18.5117 79.418 18.0488Z" fill="#FCE06C"/>
<path d="M78.5839 20.548C82.5615 14.2653 86.5077 7.96127 90.5561 1.72313C89.8542 1.63209 89.1528 1.54009 88.4519 1.44856C89.7641 4.69064 91.0486 7.93126 92.1242 11.261C93.114 14.3248 93.589 17.7805 95.0175 20.6589C95.4683 21.5688 96.8812 21.1039 96.8788 20.1552C96.8701 16.8309 95.3936 13.2977 94.3432 10.1772C93.2448 6.91335 92.0074 3.6863 90.5561 0.562388C90.1829 -0.240019 88.9705 -0.132999 88.5677 0.562388C84.8422 6.99181 81.0104 13.3607 77.2126 19.747C76.6877 20.6293 78.0391 21.4095 78.5839 20.548Z" fill="#FCE06C"/>
</svg>
