<svg width="121" height="121" viewBox="0 0 121 121" fill="none" xmlns="http://www.w3.org/2000/svg">
<path d="M4.49873 52.3116C10.9942 62.0996 23.0117 68.7007 34.2983 71.0104C45.101 73.221 60.0195 72.3075 66.1618 61.6031C68.3981 57.7047 68.2886 52.488 63.4913 50.6821C59.0362 49.0044 54.6025 51.6614 53.227 56.0466C49.5117 67.8891 64.8973 75.8965 74.2649 77.657C80.1872 78.7698 86.3619 78.4722 92.1361 76.7783C97.493 75.2066 103.527 72.3696 106.927 67.7964C107.416 67.1398 106.435 66.1843 105.779 66.648C102.27 69.128 99.1349 71.7568 95.1156 73.4395C90.9483 75.1847 86.4166 76.087 81.8988 76.1701C72.938 76.3334 61.7586 73.042 56.5855 65.1083C53.8438 60.9037 53.8802 52.2474 60.6006 52.1188C63.326 52.0669 65.8344 53.8414 65.7713 56.7346C65.7135 59.3765 63.9415 61.9178 62.1674 63.7265C54.9508 71.0828 42.667 71.2109 33.2428 69.0928C27.9133 67.8943 22.7984 65.8046 18.1383 62.9463C13.1517 59.8878 9.24503 55.9528 5.30049 51.7017C4.91437 51.2859 4.17776 51.8273 4.49873 52.3116Z" fill="#FCE06C"/>
<path d="M2.73094 50.185C7.19361 62.4215 18.8269 70.6141 31.4688 72.5849C37.5518 73.5328 43.764 73.2288 49.78 72.0022C55.9214 70.7505 62.8495 68.7499 67.6275 64.5113C70.9594 61.555 74.409 54.8095 69.6379 51.3985C65.4404 48.3973 58.0068 49.4544 54.496 53.0214C50.5642 57.0161 51.5423 63.3931 54.7016 67.5245C58.4717 72.4543 64.8808 75.2492 70.7186 76.8524C83.4946 80.3628 97.7417 77.999 108.514 70.2936C109.54 69.5592 108.578 67.8296 107.53 68.5647C99.6617 74.0839 90.163 76.7968 80.5517 76.3648C75.6528 76.1446 70.7579 75.086 66.23 73.1827C61.0437 71.003 55.1954 67.535 53.9837 61.5831C52.6465 55.015 58.351 51.1845 64.3577 51.6396C67.865 51.9052 70.8117 53.641 69.9652 57.6203C69.2778 60.8516 66.5534 63.3568 63.8441 65.0069C55.1638 70.296 43.1801 72.2088 33.1711 71.0139C20.621 69.5157 8.61988 61.9732 3.99615 49.8551C3.69945 49.0778 2.44098 49.3895 2.73094 50.185Z" fill="#FCE06C"/>
<path d="M94.9955 68.2998C97.685 68.5939 100.447 68.4874 103.151 68.5375C104.43 68.5608 105.71 68.5845 106.989 68.6079C107.58 68.6196 110.682 68.3096 110.994 68.8156C111.154 69.0768 109.33 71.7508 109.119 72.1221C108.494 73.2242 107.87 74.3262 107.245 75.428C106.026 77.5777 104.12 79.9571 103.693 82.4162C103.54 83.2949 104.5 83.8756 105.188 83.273C106.461 82.158 107.111 80.5588 107.927 79.0921C108.851 77.4314 109.774 75.7706 110.699 74.1099C111.554 72.5725 114.276 69.4164 113.181 67.496C112.134 65.6629 108.205 66.6181 106.51 66.6255C102.703 66.6413 98.7864 66.4013 94.9966 66.7613C94.0015 66.8561 94.0127 68.1921 94.9955 68.2998Z" fill="#FCE06C"/>
<path d="M95.3929 69.3587C98.2035 69.0511 101.029 67.9751 103.806 67.346C107.026 66.6173 110.292 65.9781 113.563 65.7177C113.25 65.1643 112.937 64.6112 112.624 64.0585C111.112 66.7823 109.49 69.4494 107.729 72.0274C106.017 74.5351 103.559 76.8844 102.249 79.5908C101.868 80.3782 102.675 81.5292 103.55 80.8914C105.875 79.1955 107.648 76.2335 109.266 73.8885C111.213 71.0691 112.961 68.1446 114.557 65.1233C115.039 64.2105 114.29 63.3155 113.331 63.5079C110.146 64.1476 106.957 64.6908 103.795 65.4754C100.951 66.1805 97.7222 66.8219 95.134 68.2872C94.6457 68.5635 94.8032 69.4235 95.3929 69.3587Z" fill="#FCE06C"/>
<path d="M93.0348 70.5355C100.29 68.9055 107.538 67.2383 114.812 65.6899C114.38 65.1292 113.949 64.5682 113.518 64.0079C112.153 67.2282 110.77 70.4279 109.176 73.543C107.71 76.4094 105.602 79.1887 104.577 82.2342C104.252 83.1963 105.58 83.8667 106.249 83.1942C108.594 80.8373 110.048 77.295 111.512 74.3458C113.043 71.2612 114.45 68.1043 115.632 64.8691C115.936 64.0378 115.003 63.2563 114.226 63.4632C107.046 65.3751 99.8328 67.1691 92.6316 68.9995C91.6365 69.2521 92.0404 70.7594 93.0348 70.5355Z" fill="#FCE06C"/>
</svg>
