<svg width="28" height="28" viewBox="0 0 28 28" fill="none" xmlns="http://www.w3.org/2000/svg">
<path fill-rule="evenodd" clip-rule="evenodd" d="M26.81 7.105C26.0505 5.754 25.2262 5.5055 23.548 5.411C21.8715 5.29725 17.6558 5.25 14.0035 5.25C10.3442 5.25 6.12675 5.29725 4.452 5.40925C2.77725 5.5055 1.95125 5.75225 1.18475 7.105C0.4025 8.45425 0 10.7782 0 14.8697V14.8837C0 18.9578 0.4025 21.2992 1.18475 22.6345C1.95125 23.9855 2.7755 24.2305 4.45025 24.3442C6.12675 24.4423 10.3442 24.5 14.0035 24.5C17.6558 24.5 21.8715 24.4422 23.5497 24.346C25.228 24.2323 26.0522 23.9873 26.8118 22.6363C27.601 21.301 28 18.9595 28 14.8855V14.8768V14.8715C28 10.7783 27.601 8.45425 26.81 7.105Z" fill="#F44336"/>
<path fill-rule="evenodd" clip-rule="evenodd" d="M10.5 20.125V9.625L19.25 14.875L10.5 20.125Z" fill="#FAFAFA"/>
</svg>
